<svg width="148" height="452" viewBox="0 0 148 452" fill="none" xmlns="http://www.w3.org/2000/svg">
<path d="M25.6029 240.851C26.6371 239.546 27.3644 238.038 27.7335 236.43C28.1026 234.823 28.1046 233.157 27.7392 231.549C27.3739 229.942 26.6502 228.431 25.619 227.124C24.5878 225.818 23.2743 224.747 21.7709 223.986L24.0622 198.345L8.36393 193.192L5.65169 229.447C4.50478 231.985 4.35607 234.844 5.23375 237.482C6.11142 240.12 7.9545 242.353 10.4137 243.759C12.873 245.164 15.7776 245.645 18.577 245.109C21.3765 244.573 23.8763 243.058 25.6029 240.851V240.851Z" fill="#FFB8B8"/>
<path d="M104.572 438.514L90.6546 438.513L84.0353 386.383L104.577 386.384L104.572 438.514Z" fill="#FFB8B8"/>
<path d="M80.2368 434.425H108.312V451.802H62.5596C62.5596 449.52 63.0169 447.261 63.9052 445.153C64.7936 443.044 66.0957 441.129 67.7371 439.515C69.3786 437.901 71.3273 436.621 73.472 435.748C75.6167 434.875 77.9154 434.425 80.2368 434.425V434.425Z" fill="#0D1321"/>
<path d="M72.8306 403.582L58.5765 406.827L38.2828 357.441L59.3199 352.651L72.8306 403.582Z" fill="#FFB8B8"/>
<path d="M47.5772 405.608L74.4449 399.334L78.6017 415.411L34.8174 425.635C34.2715 423.524 34.1685 421.331 34.5144 419.182C34.8602 417.033 35.648 414.97 36.8328 413.11C38.0177 411.25 39.5764 409.631 41.4199 408.344C43.2634 407.056 45.3557 406.127 47.5772 405.608Z" fill="#0D1321"/>
<path d="M88.4222 422.159C87.1124 422.162 85.8482 421.7 84.8748 420.865C83.9015 420.029 83.2884 418.879 83.1543 417.636L66.6402 270.97L52.2705 315.819L72.6231 385.869C72.9733 387.07 72.8459 388.352 72.2655 389.468C71.685 390.585 70.6924 391.458 69.4781 391.92L53.2978 398.091C52.6316 398.345 51.9183 398.468 51.201 398.452C50.4837 398.435 49.7772 398.281 49.1242 397.997C48.4713 397.714 47.8855 397.307 47.402 396.801C46.9186 396.296 46.5476 395.702 46.3115 395.056L21.368 326.83C18.6374 319.381 17.4293 311.501 17.809 303.619L21.2905 229.99L112.981 233.691L111.549 415.856C111.532 417.124 111.019 418.34 110.111 419.267C109.203 420.194 107.964 420.764 106.638 420.866L88.8326 422.145C88.695 422.155 88.5582 422.159 88.4222 422.159Z" fill="#0D1321"/>
<path d="M72.8306 68.4859C89.8481 68.4859 103.644 55.2142 103.644 38.8427C103.644 22.4713 89.8481 9.19958 72.8306 9.19958C55.8131 9.19958 42.0176 22.4713 42.0176 38.8427C42.0176 55.2142 55.8131 68.4859 72.8306 68.4859Z" fill="#FFB8B8"/>
<path d="M95.9513 239.164C87.8538 239.164 77.7927 238.531 67.3857 237.876C53.1642 236.981 38.4585 236.056 27.4806 236.664C25.9983 236.805 24.503 236.58 23.1373 236.011C21.7716 235.443 20.581 234.549 19.679 233.415C8.36233 219.562 25.8172 165.536 26.5658 163.243L40.7708 102.832L41.3815 102.963L40.7708 102.832C43.8955 89.5453 53.8798 79.7441 66.8274 77.2536C78.9463 74.9262 90.668 79.5652 98.1857 89.6726C98.5845 90.2086 98.9832 90.7588 99.3817 91.3232C123.859 125.985 110.015 212.097 109.087 217.655C110.38 219.136 117.372 227.509 115.45 233.325C114.668 235.691 112.544 237.304 109.137 238.118C104.797 238.939 100.374 239.291 95.9513 239.164V239.164Z" fill="#404B7C"/>
<path d="M27.5507 239.186C24.748 239.186 20.9673 238.204 15.8689 236.189C13.678 235.323 7.0109 232.689 15.1048 165.51C19.0806 132.51 24.776 99.7407 24.8332 99.4135L24.888 99.098L25.195 98.966C25.3417 98.9029 39.8871 92.5705 42.4166 84.4333C42.5043 84.1517 42.6025 83.8787 42.7113 83.6142C43.4073 81.8054 44.8119 80.3217 46.6321 79.4727C48.4522 78.6238 50.5472 78.4751 52.48 79.0578C54.5217 79.5211 56.3014 80.7048 57.4577 82.3687C58.614 84.0325 59.0604 86.0519 58.7063 88.017C57.8256 93.3243 56.1317 98.4806 53.6786 103.322C46.8341 116.735 42.197 152.292 42.1509 152.65C41.8894 155.686 35.6772 227.636 34.4805 233.097C34.0625 235.004 33.2935 237.338 31.0368 238.469C29.9542 238.976 28.757 239.222 27.5507 239.186V239.186Z" fill="#0D1321"/>
<path d="M61.3678 236.123C60.8044 236.123 60.2571 235.945 59.8124 235.616C50.7405 229.077 65.4225 149.809 74.1312 122.459C75.8751 116.983 77.4276 112.293 78.7465 108.518C81.1505 101.746 82.8286 94.7611 83.7552 87.6697C84.2343 83.8283 85.2761 81.6336 86.9406 80.9614C88.0968 80.4933 89.4575 80.8108 90.9831 81.9064C99.027 81.5295 106.843 84.6476 114.087 88.0767L120.605 91.1616L127.921 214.005C127.714 221.845 111.421 227.379 104.311 227.733C92.9001 228.3 72.4082 230.063 63.3809 235.484C62.7881 235.876 62.0894 236.097 61.3678 236.123V236.123Z" fill="#0D1321"/>
<path d="M20.3849 212.613C20.2751 212.613 20.1656 212.61 20.0549 212.604L5.05914 211.746C4.31259 211.703 3.58381 211.516 2.91906 211.198C2.25431 210.879 1.66815 210.435 1.19797 209.894C0.727799 209.353 0.383858 208.727 0.188019 208.056C-0.00781977 207.385 -0.0512594 206.683 0.060462 205.995L6.84626 164.192L19.6206 105.54C19.9352 104.095 20.5729 102.728 21.4922 101.527C22.4115 100.326 23.5919 99.3182 24.9569 98.5687C26.322 97.8191 27.8412 97.3446 29.4161 97.1759C30.9909 97.0073 32.5864 97.1483 34.0989 97.5897V97.5897C36.6848 98.3569 38.8905 99.9585 40.3177 102.105C41.745 104.252 42.2998 106.802 41.8821 109.296L31.7332 168.065L25.7253 208.291C25.5408 209.487 24.8999 210.582 23.9195 211.375C22.9391 212.169 21.6846 212.608 20.3849 212.613V212.613Z" fill="#0D1321"/>
<path d="M70.8742 166.877C71.7684 165.49 72.9707 164.307 74.3964 163.411C75.8222 162.515 77.4367 161.928 79.1263 161.691C80.8159 161.454 82.5395 161.574 84.1756 162.04C85.8117 162.507 87.3205 163.309 88.5959 164.392L112.633 153.327L123.252 165.608L89.0761 180.779C87.026 182.701 84.3076 183.839 81.436 183.978C78.5645 184.116 75.7392 183.247 73.4956 181.533C71.252 179.819 69.7459 177.381 69.2628 174.68C68.7797 171.978 69.353 169.202 70.8742 166.877V166.877Z" fill="#FFB8B8"/>
<path d="M104.916 178.881C103.736 178.881 102.59 178.501 101.663 177.802C100.736 177.104 100.081 176.127 99.805 175.029L96.323 161.188C96.0574 160.147 96.1481 159.052 96.5821 158.064C97.016 157.076 97.7702 156.247 98.7335 155.7L119.73 143.681L108.997 106.095C108.24 103.423 108.405 100.589 109.468 98.0142C110.481 95.5734 112.256 93.4904 114.551 92.0488C116.846 90.6072 119.549 89.877 122.294 89.9576C125.038 90.0382 127.69 90.9257 129.888 92.4992C132.086 94.0727 133.724 96.2559 134.579 98.7516L146.428 133.357C147.884 137.575 147.896 142.128 146.461 146.353C145.027 150.578 142.221 154.255 138.452 156.85L107.994 177.927C107.098 178.547 106.021 178.881 104.916 178.881V178.881Z" fill="#0D1321"/>
<path d="M78.4134 67.4564C83.0575 67.5512 87.6703 66.7165 91.9486 65.0072C96.2269 63.2979 100.074 60.7527 103.237 57.5389C106.4 54.325 108.807 50.5153 110.3 46.36C111.793 42.2047 112.339 37.7979 111.9 33.4293C111.462 29.0607 110.05 24.8292 107.758 21.0127C105.465 17.1963 102.343 13.8814 98.5978 11.2858C94.8523 8.69026 90.5678 6.87283 86.0258 5.95297C81.4838 5.03311 76.7871 5.03161 72.2444 5.94863C65.4586 2.05639 57.5692 -0.562627 49.6619 0.103505C41.7545 0.769637 33.9344 5.20437 30.9775 12.1642C28.0206 19.124 31.1972 28.2981 38.5496 31.1265C43.2632 32.9398 48.5862 32.0604 53.6165 31.3292C58.6468 30.598 64.1343 30.1208 68.5122 32.5727C72.8901 35.0245 74.8581 41.5991 70.9372 44.6646C68.8588 46.3539 67.3746 48.6014 66.6824 51.1077C65.9902 53.6139 66.1227 56.2599 67.0624 58.6932C69.033 63.5073 74.4113 67.3748 78.4134 67.4564Z" fill="#0D1321"/>
</svg>
