<svg width="466" height="489" viewBox="0 0 466 489" fill="none" xmlns="http://www.w3.org/2000/svg">
<path d="M286.688 488.393C286.521 487.86 286.406 487.313 286.343 486.758L264.794 363.684C264.762 363.367 264.713 363.052 264.648 362.74C264.192 360.497 263.055 358.449 261.394 356.877C259.732 355.305 257.627 354.284 255.365 353.955L132.489 354.49C130.164 354.141 127.789 354.546 125.71 355.645C123.631 356.745 121.958 358.482 120.935 360.602C118.937 364.774 116.98 369.006 115.064 373.297C107.309 390.584 100.172 408.86 93.652 428.125C149.35 459.627 215.292 481.128 286.949 489.18L286.688 488.393Z" fill="#0D1321"/>
<path d="M406.635 159.049C406.333 160.379 406.136 161.732 406.046 163.093L300.287 224.209L274.581 209.385L247.177 245.323L290.138 275.995C293.609 278.473 297.789 279.757 302.05 279.653C306.31 279.549 310.423 278.063 313.769 275.419L422.824 189.237C427.746 191.062 433.106 191.343 438.191 190.042C443.276 188.741 447.844 185.921 451.29 181.955C454.735 177.99 456.894 173.068 457.478 167.844C458.063 162.619 457.046 157.341 454.562 152.71C452.079 148.079 448.247 144.315 443.576 141.918C438.905 139.522 433.616 138.607 428.413 139.296C423.21 139.984 418.34 142.242 414.45 145.771C410.559 149.299 407.834 153.931 406.635 159.049V159.049Z" fill="#763D2B"/>
<path d="M298.839 218.102C298.518 216.539 297.865 215.063 296.924 213.776C295.983 212.488 294.776 211.418 293.386 210.638L244.857 183.455C238.409 178.471 230.25 176.252 222.171 177.284C214.091 178.315 206.75 182.514 201.756 188.96C196.762 195.405 194.523 203.571 195.531 211.667C196.538 219.764 200.709 227.13 207.129 232.15L245.82 272.395C246.925 273.544 248.263 274.442 249.745 275.026C251.226 275.61 252.816 275.868 254.406 275.781C255.996 275.695 257.549 275.266 258.959 274.524C260.368 273.783 261.602 272.745 262.576 271.483L270.111 261.692L272.685 258.358L296.756 227.108C297.635 225.967 298.279 224.663 298.65 223.271C299.121 221.587 299.186 219.816 298.839 218.102Z" fill="#404B7B"/>
<path d="M228.574 135.215C252.188 111.561 252.188 73.2096 228.574 49.5552C204.96 25.9008 166.674 25.9008 143.059 49.5552C119.445 73.2096 119.445 111.561 143.059 135.215C166.674 158.87 204.96 158.87 228.574 135.215Z" fill="#763D2B"/>
<path d="M262.272 321.646C264.7 318.008 280.137 293.456 274.297 264.68C273.868 262.546 273.33 260.436 272.685 258.358C269.933 249.696 265.537 241.648 259.739 234.656C259.813 232.727 259.792 230.829 259.677 228.942V228.932C258.823 215.821 253.27 203.46 244.04 194.125C234.809 184.79 222.523 179.11 209.442 178.13L141.814 172.982C133.109 172.271 124.363 173.69 116.326 177.116C108.29 180.542 101.206 185.872 95.6822 192.649C94.4102 194.194 93.2189 195.803 92.1133 197.471C92.1119 197.471 92.1106 197.472 92.1093 197.472C92.108 197.473 92.1069 197.473 92.106 197.474C92.105 197.475 92.1042 197.477 92.1038 197.478C92.1033 197.479 92.103 197.48 92.1031 197.482C87.8389 203.928 85.0094 211.218 83.8068 218.857C82.6041 226.496 83.0564 234.305 85.1329 241.753L85.7088 244.29L92.9192 275.96L104.975 328.953L115.064 373.297L116.132 377.973C116.695 380.421 118.068 382.607 120.03 384.174C121.991 385.74 124.424 386.596 126.932 386.6C127.535 386.603 128.138 386.554 128.732 386.454L259.593 364.963C261.44 364.667 263.18 363.902 264.648 362.741C265.529 362.037 266.301 361.207 266.94 360.277C267.792 359.042 268.383 357.644 268.674 356.171C268.966 354.697 268.953 353.18 268.635 351.712L262.272 321.646Z" fill="#404B7B"/>
<path d="M4.73442 500.513C2.51484 497.341 1.01643 493.721 0.344723 489.907C-0.326983 486.093 -0.155641 482.177 0.846679 478.437C1.849 474.696 3.65792 471.221 6.14602 468.256C8.63412 465.292 11.7409 462.91 15.2475 461.278L89.7547 231.811L132.933 252.335L51.4104 475.763C53.7566 481.846 53.7939 488.579 51.5151 494.687C49.2364 500.796 44.8001 505.854 39.0466 508.905C33.2932 511.956 26.6225 512.787 20.2986 511.24C13.9746 509.693 8.43677 505.876 4.73442 500.513V500.513Z" fill="#763D2B"/>
<path d="M132.426 177.605C124.444 175.2 115.849 175.912 108.37 179.597C100.891 183.283 95.0822 189.669 92.1133 197.471C92.1119 197.471 92.1106 197.472 92.1093 197.472C92.108 197.473 92.1069 197.473 92.1059 197.474C92.105 197.475 92.1042 197.476 92.1037 197.478C92.1033 197.479 92.103 197.48 92.1031 197.482C91.8307 198.184 91.5798 198.918 91.36 199.652L85.049 213.06L65.9812 253.578C65.2522 255.122 64.8645 256.805 64.8444 258.512C64.8244 260.22 65.1725 261.912 65.8649 263.472C66.5574 265.033 67.5779 266.425 68.8568 267.555C70.1357 268.684 71.6429 269.523 73.2754 270.016L76.9909 271.137L92.9191 275.96L121.187 284.514L130.606 287.366C132.238 287.859 133.957 287.995 135.646 287.763C137.335 287.531 138.954 286.938 140.393 286.022C141.832 285.107 143.058 283.892 143.985 282.459C144.913 281.027 145.522 279.41 145.77 277.721L154.478 218.553C156.951 210.194 156.02 201.194 151.888 193.521C147.756 185.847 140.759 180.125 132.426 177.605Z" fill="#404B7B"/>
<path d="M241.341 70.359C219.794 89.2392 186.717 93.6231 161.01 81.0055C172.558 94.7283 194.488 162.469 194.488 162.469C194.488 162.469 132.565 155.95 123.816 154.076C72.1418 143.007 90.9248 8.95348 145.986 9.63029C155.312 9.74488 163.465 10.8746 169.672 17.8471C173.792 6.27907 186.892 -0.535289 199.122 0.346838C211.352 1.22897 222.412 8.58721 230.279 18.0077C236.557 25.6345 241.089 34.5479 243.554 44.1196C246.02 53.6913 246.36 63.6882 244.549 73.4056L241.341 70.359Z" fill="#0D1321"/>
<path d="M465.993 382.03C466.019 382.305 465.972 382.582 465.858 382.834C465.745 383.085 465.568 383.303 465.345 383.466C429.021 413.088 399.374 450.081 378.355 492.01C376.89 492.083 375.425 492.157 373.949 492.209C375.812 488.425 377.745 484.679 379.747 480.971C390.148 461.774 402.384 443.634 416.282 426.804C430.178 409.963 445.693 394.531 462.603 380.73C462.737 380.62 462.884 380.529 463.042 380.457C463.337 380.331 463.656 380.272 463.977 380.286C464.297 380.3 464.61 380.385 464.893 380.536C465.177 380.687 465.422 380.899 465.613 381.158C465.803 381.416 465.933 381.714 465.993 382.03V382.03Z" fill="#404B7B"/>
</svg>
