<svg width="327" height="158" viewBox="0 0 327 158" fill="none" xmlns="http://www.w3.org/2000/svg">
<path d="M77.4101 25.56C81.4421 26.808 84.5861 28.104 86.8421 29.448C89.0981 30.792 90.7061 32.352 91.6661 34.128C92.6741 35.904 93.1781 38.088 93.1781 40.68C93.1781 43.32 92.4341 45.72 90.9461 47.88C89.5061 49.992 87.4901 51.672 84.8981 52.92C82.3061 54.12 79.3781 54.72 76.1141 54.72C72.5621 54.72 69.4181 54.216 66.6821 53.208C63.9941 52.152 61.9061 50.688 60.4181 48.816C58.9781 46.944 58.2581 44.76 58.2581 42.264C58.2581 40.728 58.6421 39.504 59.4101 38.592C60.2261 37.68 61.3301 37.224 62.7221 37.224C63.9221 37.224 64.9061 37.608 65.6741 38.376C66.4901 39.144 66.8981 40.104 66.8981 41.256C66.8981 42.792 66.2981 43.992 65.0981 44.856C66.0101 46.104 67.4021 47.112 69.2741 47.88C71.1461 48.648 73.3541 49.032 75.8981 49.032C79.1621 49.032 81.7541 48.312 83.6741 46.872C85.6421 45.384 86.6261 43.44 86.6261 41.04C86.6261 39.36 86.3381 38.04 85.7621 37.08C85.1861 36.072 84.1301 35.184 82.5941 34.416C81.0581 33.6 78.6581 32.664 75.3941 31.608C71.3621 30.312 68.1941 28.992 65.8901 27.648C63.5861 26.256 61.9061 24.696 60.8501 22.968C59.8421 21.192 59.3381 19.008 59.3381 16.416C59.3381 13.824 60.0821 11.496 61.5701 9.432C63.0581 7.368 65.1221 5.76 67.7621 4.608C70.4501 3.456 73.4981 2.88 76.9061 2.88C81.6101 2.88 85.3301 3.912 88.0661 5.976C90.8021 8.04 92.1701 10.848 92.1701 14.4C92.1701 15.936 91.7621 17.16 90.9461 18.072C90.1781 18.984 89.0981 19.44 87.7061 19.44C86.5061 19.44 85.4981 19.08 84.6821 18.36C83.9141 17.592 83.5301 16.632 83.5301 15.48C83.5301 14.136 84.0101 13.032 84.9701 12.168C83.8181 9.768 80.9381 8.568 76.3301 8.568C73.1621 8.568 70.6181 9.264 68.6981 10.656C66.7781 12.048 65.8181 13.896 65.8181 16.2C65.8181 17.784 66.1301 19.08 66.7541 20.088C67.4261 21.048 68.5541 21.96 70.1381 22.824C71.7701 23.64 74.1941 24.552 77.4101 25.56ZM134.089 34.2C134.089 34.44 134.017 35.496 133.873 37.368H108.313C108.553 41.016 109.609 43.896 111.481 46.008C113.353 48.072 115.849 49.104 118.969 49.104C121.081 49.104 122.761 48.768 124.009 48.096C125.257 47.424 126.433 46.224 127.537 44.496C127.921 43.92 128.281 43.512 128.617 43.272C129.001 43.032 129.433 42.912 129.913 42.912C130.633 42.912 131.257 43.152 131.785 43.632C132.361 44.064 132.649 44.616 132.649 45.288C132.649 46.2 132.313 47.136 131.641 48.096C130.249 50.352 128.521 52.032 126.457 53.136C124.393 54.192 121.825 54.72 118.753 54.72C115.345 54.72 112.345 53.928 109.753 52.344C107.209 50.76 105.217 48.528 103.777 45.648C102.385 42.768 101.689 39.456 101.689 35.712C101.689 32.016 102.385 28.776 103.777 25.992C105.169 23.208 107.137 21.072 109.681 19.584C112.225 18.048 115.177 17.28 118.537 17.28C123.193 17.28 126.937 18.768 129.769 21.744C132.649 24.72 134.089 28.872 134.089 34.2ZM118.393 22.608C115.561 22.608 113.281 23.472 111.553 25.2C109.873 26.88 108.841 29.328 108.457 32.544H127.537C127.489 25.92 124.441 22.608 118.393 22.608ZM142.782 54C141.198 54 140.406 53.352 140.406 52.056V50.256C140.406 48.96 141.198 48.312 142.782 48.312H144.654V6.408H142.782C141.198 6.408 140.406 5.76 140.406 4.464V2.664C140.406 1.368 141.198 0.719999 142.782 0.719999H148.47C149.19 0.719999 149.79 0.983999 150.27 1.512C150.798 1.992 151.062 2.616 151.062 3.384V48.312H152.934C154.518 48.312 155.31 48.96 155.31 50.256V52.056C155.31 53.352 154.518 54 152.934 54H142.782ZM194.136 34.2C194.136 34.44 194.064 35.496 193.92 37.368H168.36C168.6 41.016 169.656 43.896 171.528 46.008C173.4 48.072 175.896 49.104 179.016 49.104C181.128 49.104 182.808 48.768 184.056 48.096C185.304 47.424 186.48 46.224 187.584 44.496C187.968 43.92 188.328 43.512 188.664 43.272C189.048 43.032 189.48 42.912 189.96 42.912C190.68 42.912 191.304 43.152 191.832 43.632C192.408 44.064 192.696 44.616 192.696 45.288C192.696 46.2 192.36 47.136 191.688 48.096C190.296 50.352 188.568 52.032 186.504 53.136C184.44 54.192 181.872 54.72 178.8 54.72C175.392 54.72 172.392 53.928 169.8 52.344C167.256 50.76 165.264 48.528 163.824 45.648C162.432 42.768 161.736 39.456 161.736 35.712C161.736 32.016 162.432 28.776 163.824 25.992C165.216 23.208 167.184 21.072 169.728 19.584C172.272 18.048 175.224 17.28 178.584 17.28C183.24 17.28 186.984 18.768 189.816 21.744C192.696 24.72 194.136 28.872 194.136 34.2ZM178.44 22.608C175.608 22.608 173.328 23.472 171.6 25.2C169.92 26.88 168.888 29.328 168.504 32.544H187.584C187.536 25.92 184.488 22.608 178.44 22.608ZM229.757 42.912C230.477 42.912 231.101 43.152 231.629 43.632C232.205 44.064 232.493 44.616 232.493 45.288C232.493 46.2 232.157 47.136 231.485 48.096C230.093 50.352 228.365 52.032 226.301 53.136C224.237 54.192 221.669 54.72 218.597 54.72C215.189 54.72 212.189 53.928 209.597 52.344C207.053 50.76 205.061 48.528 203.621 45.648C202.229 42.768 201.533 39.456 201.533 35.712C201.533 32.016 202.229 28.776 203.621 25.992C205.061 23.208 207.053 21.072 209.597 19.584C212.141 18.048 215.093 17.28 218.453 17.28C221.237 17.28 223.709 17.76 225.869 18.72C228.029 19.68 229.709 21.048 230.909 22.824C232.109 24.552 232.709 26.52 232.709 28.728C232.709 30.216 232.301 31.392 231.485 32.256C230.669 33.12 229.589 33.552 228.245 33.552C227.045 33.552 226.037 33.168 225.221 32.4C224.453 31.632 224.069 30.672 224.069 29.52C224.069 28.176 224.525 27.096 225.437 26.28C224.861 25.176 223.949 24.336 222.701 23.76C221.501 23.184 220.013 22.896 218.237 22.896C214.973 22.896 212.453 24 210.677 26.208C208.949 28.416 208.085 31.56 208.085 35.64C208.085 39.816 209.021 43.104 210.893 45.504C212.813 47.904 215.453 49.104 218.813 49.104C220.925 49.104 222.605 48.768 223.853 48.096C225.101 47.424 226.277 46.224 227.381 44.496C227.765 43.92 228.125 43.512 228.461 43.272C228.845 43.032 229.277 42.912 229.757 42.912ZM265.336 42.192C266.104 42.192 266.776 42.432 267.352 42.912C267.928 43.344 268.216 43.896 268.216 44.568C268.216 45.336 267.976 46.2 267.496 47.16C266.392 49.368 265.072 51.192 263.536 52.632C262 54.024 259.888 54.72 257.2 54.72C253.264 54.72 250.264 53.544 248.2 51.192C246.184 48.84 245.176 45.408 245.176 40.896V23.616H240.712C239.848 23.616 239.176 23.4 238.696 22.968C238.264 22.536 238.048 21.936 238.048 21.168V20.376C238.048 19.608 238.264 19.032 238.696 18.648C239.176 18.216 239.848 18 240.712 18H245.176V11.376C245.176 10.512 245.392 9.864 245.824 9.432C246.304 8.952 246.952 8.712 247.768 8.712H249.136C249.952 8.712 250.576 8.952 251.008 9.432C251.44 9.864 251.656 10.512 251.656 11.376V18H261.016C261.88 18 262.528 18.216 262.96 18.648C263.44 19.032 263.68 19.608 263.68 20.376V21.168C263.68 21.936 263.44 22.536 262.96 22.968C262.528 23.4 261.88 23.616 261.016 23.616H251.656V40.752C251.656 46.32 253.576 49.104 257.416 49.104C258.904 49.104 260.008 48.72 260.728 47.952C261.496 47.136 262.288 45.792 263.104 43.92C263.44 43.296 263.752 42.864 264.04 42.624C264.376 42.336 264.808 42.192 265.336 42.192ZM19.5311 89.6C27.2111 89.6 33.1151 91.688 37.2431 95.864C41.4191 99.992 43.5071 105.92 43.5071 113.648C43.5071 118.976 42.5231 123.632 40.5551 127.616C38.5871 131.552 35.7791 134.6 32.1311 136.76C28.4831 138.92 24.2111 140 19.3151 140H3.04313C1.45913 140 0.667125 139.352 0.667125 138.056V136.256C0.667125 134.96 1.45913 134.312 3.04313 134.312H4.91513V95.288H3.04313C1.45913 95.288 0.667125 94.64 0.667125 93.344V91.544C0.667125 90.248 1.45913 89.6 3.04313 89.6H19.5311ZM18.6671 134.312C24.5231 134.312 29.0111 132.536 32.1311 128.984C35.2991 125.432 36.8831 120.392 36.8831 113.864C36.8831 107.576 35.4191 102.92 32.4911 99.896C29.5631 96.824 25.0991 95.288 19.0991 95.288H11.3951V134.312H18.6671ZM58.095 97.016C56.751 97.016 55.623 96.56 54.711 95.648C53.799 94.736 53.343 93.608 53.343 92.264C53.343 90.92 53.799 89.816 54.711 88.952C55.623 88.04 56.751 87.584 58.095 87.584C59.439 87.584 60.543 88.04 61.407 88.952C62.319 89.816 62.775 90.92 62.775 92.264C62.775 93.608 62.319 94.736 61.407 95.648C60.543 96.56 59.439 97.016 58.095 97.016ZM54.135 140C52.599 140 51.831 139.352 51.831 138.056V136.256C51.831 134.96 52.599 134.312 54.135 134.312H56.007V109.688H54.135C52.599 109.688 51.831 109.04 51.831 107.744V105.944C51.831 104.648 52.599 104 54.135 104H59.823C60.591 104 61.215 104.264 61.695 104.792C62.223 105.272 62.487 105.896 62.487 106.664V134.312H64.359C65.943 134.312 66.735 134.96 66.735 136.256V138.056C66.735 139.352 65.943 140 64.359 140H54.135ZM96.0401 97.52C94.9361 97.52 94.0001 97.136 93.2321 96.368C92.5121 95.6 92.1521 94.664 92.1521 93.56C92.1521 92.888 92.2961 92.312 92.5841 91.832C92.0561 91.688 91.4561 91.616 90.7841 91.616C88.8641 91.616 87.4241 92.216 86.4641 93.416C85.5521 94.616 85.0961 96.464 85.0961 98.96V104H93.9521C95.7281 104 96.6161 104.792 96.6161 106.376V107.168C96.6161 107.936 96.4001 108.536 95.9681 108.968C95.5361 109.4 94.8641 109.616 93.9521 109.616H85.0961V134.312H88.5521C90.0881 134.312 90.8561 134.96 90.8561 136.256V138.056C90.8561 139.352 90.0881 140 88.5521 140H76.8161C75.2321 140 74.4401 139.352 74.4401 138.056V136.256C74.4401 134.96 75.2321 134.312 76.8161 134.312H78.6881V109.616H74.1521C73.2881 109.616 72.6161 109.4 72.1361 108.968C71.7041 108.536 71.4881 107.936 71.4881 107.168V106.376C71.4881 105.656 71.7041 105.08 72.1361 104.648C72.6161 104.216 73.2881 104 74.1521 104H78.6881V98.384C78.6881 94.592 79.7681 91.592 81.9281 89.384C84.1361 87.128 87.0641 86 90.7121 86C93.4961 86 95.7761 86.672 97.5521 88.016C99.3761 89.312 100.288 90.968 100.288 92.984C100.288 94.376 99.9041 95.48 99.1361 96.296C98.3681 97.112 97.3361 97.52 96.0401 97.52ZM125.079 97.52C123.975 97.52 123.039 97.136 122.271 96.368C121.551 95.6 121.191 94.664 121.191 93.56C121.191 92.888 121.335 92.312 121.623 91.832C121.095 91.688 120.495 91.616 119.823 91.616C117.903 91.616 116.463 92.216 115.503 93.416C114.591 94.616 114.135 96.464 114.135 98.96V104H122.991C124.767 104 125.655 104.792 125.655 106.376V107.168C125.655 107.936 125.439 108.536 125.007 108.968C124.575 109.4 123.903 109.616 122.991 109.616H114.135V134.312H117.591C119.127 134.312 119.895 134.96 119.895 136.256V138.056C119.895 139.352 119.127 140 117.591 140H105.855C104.271 140 103.479 139.352 103.479 138.056V136.256C103.479 134.96 104.271 134.312 105.855 134.312H107.727V109.616H103.191C102.327 109.616 101.655 109.4 101.175 108.968C100.743 108.536 100.527 107.936 100.527 107.168V106.376C100.527 105.656 100.743 105.08 101.175 104.648C101.655 104.216 102.327 104 103.191 104H107.727V98.384C107.727 94.592 108.807 91.592 110.967 89.384C113.175 87.128 116.103 86 119.751 86C122.535 86 124.815 86.672 126.591 88.016C128.415 89.312 129.327 90.968 129.327 92.984C129.327 94.376 128.943 95.48 128.175 96.296C127.407 97.112 126.375 97.52 125.079 97.52ZM140.29 97.016C138.946 97.016 137.818 96.56 136.906 95.648C135.994 94.736 135.538 93.608 135.538 92.264C135.538 90.92 135.994 89.816 136.906 88.952C137.818 88.04 138.946 87.584 140.29 87.584C141.634 87.584 142.738 88.04 143.602 88.952C144.514 89.816 144.97 90.92 144.97 92.264C144.97 93.608 144.514 94.736 143.602 95.648C142.738 96.56 141.634 97.016 140.29 97.016ZM136.33 140C134.794 140 134.026 139.352 134.026 138.056V136.256C134.026 134.96 134.794 134.312 136.33 134.312H138.202V109.688H136.33C134.794 109.688 134.026 109.04 134.026 107.744V105.944C134.026 104.648 134.794 104 136.33 104H142.018C142.786 104 143.41 104.264 143.89 104.792C144.418 105.272 144.682 105.896 144.682 106.664V134.312H146.554C148.138 134.312 148.93 134.96 148.93 136.256V138.056C148.93 139.352 148.138 140 146.554 140H136.33ZM183.491 128.912C184.211 128.912 184.835 129.152 185.363 129.632C185.939 130.064 186.227 130.616 186.227 131.288C186.227 132.2 185.891 133.136 185.219 134.096C183.827 136.352 182.099 138.032 180.035 139.136C177.971 140.192 175.403 140.72 172.331 140.72C168.923 140.72 165.923 139.928 163.331 138.344C160.787 136.76 158.795 134.528 157.355 131.648C155.963 128.768 155.267 125.456 155.267 121.712C155.267 118.016 155.963 114.776 157.355 111.992C158.795 109.208 160.787 107.072 163.331 105.584C165.875 104.048 168.827 103.28 172.187 103.28C174.971 103.28 177.443 103.76 179.603 104.72C181.763 105.68 183.443 107.048 184.643 108.824C185.843 110.552 186.443 112.52 186.443 114.728C186.443 116.216 186.035 117.392 185.219 118.256C184.403 119.12 183.323 119.552 181.979 119.552C180.779 119.552 179.771 119.168 178.955 118.4C178.187 117.632 177.803 116.672 177.803 115.52C177.803 114.176 178.259 113.096 179.171 112.28C178.595 111.176 177.683 110.336 176.435 109.76C175.235 109.184 173.747 108.896 171.971 108.896C168.707 108.896 166.187 110 164.411 112.208C162.683 114.416 161.819 117.56 161.819 121.64C161.819 125.816 162.755 129.104 164.627 131.504C166.547 133.904 169.187 135.104 172.547 135.104C174.659 135.104 176.339 134.768 177.587 134.096C178.835 133.424 180.011 132.224 181.115 130.496C181.499 129.92 181.859 129.512 182.195 129.272C182.579 129.032 183.011 128.912 183.491 128.912ZM228.359 134.312C229.895 134.312 230.663 134.96 230.663 136.256V138.056C230.663 139.352 229.895 140 228.359 140H222.671C221.903 140 221.255 139.76 220.727 139.28C220.247 138.752 220.007 138.104 220.007 137.336V131.936C218.951 134.48 217.319 136.592 215.111 138.272C212.951 139.904 210.647 140.72 208.199 140.72C204.263 140.72 201.335 139.4 199.415 136.76C197.543 134.12 196.607 130.064 196.607 124.592V109.688H194.735C193.199 109.688 192.431 109.04 192.431 107.744V105.944C192.431 104.648 193.199 104 194.735 104H200.567C201.239 104 201.815 104.264 202.295 104.792C202.823 105.272 203.087 105.896 203.087 106.664V123.584C203.087 126.512 203.279 128.792 203.663 130.424C204.095 132.056 204.791 133.256 205.751 134.024C206.759 134.744 208.103 135.104 209.783 135.104C211.511 135.104 213.167 134.528 214.751 133.376C216.335 132.224 217.607 130.712 218.567 128.84C219.527 126.92 220.007 124.928 220.007 122.864V109.688H218.135C216.551 109.688 215.759 109.04 215.759 107.744V105.944C215.759 104.648 216.551 104 218.135 104H223.895C224.663 104 225.287 104.264 225.767 104.792C226.247 105.272 226.487 105.896 226.487 106.664V134.312H228.359ZM238.688 140C237.104 140 236.312 139.352 236.312 138.056V136.256C236.312 134.96 237.104 134.312 238.688 134.312H240.56V92.408H238.688C237.104 92.408 236.312 91.76 236.312 90.464V88.664C236.312 87.368 237.104 86.72 238.688 86.72H244.376C245.096 86.72 245.696 86.984 246.176 87.512C246.704 87.992 246.968 88.616 246.968 89.384V134.312H248.84C250.424 134.312 251.216 134.96 251.216 136.256V138.056C251.216 139.352 250.424 140 248.84 140H238.688ZM282.914 128.192C283.682 128.192 284.354 128.432 284.93 128.912C285.506 129.344 285.794 129.896 285.794 130.568C285.794 131.336 285.554 132.2 285.074 133.16C283.97 135.368 282.65 137.192 281.114 138.632C279.578 140.024 277.466 140.72 274.778 140.72C270.842 140.72 267.842 139.544 265.778 137.192C263.762 134.84 262.754 131.408 262.754 126.896V109.616H258.29C257.426 109.616 256.754 109.4 256.274 108.968C255.842 108.536 255.626 107.936 255.626 107.168V106.376C255.626 105.608 255.842 105.032 256.274 104.648C256.754 104.216 257.426 104 258.29 104H262.754V97.376C262.754 96.512 262.97 95.864 263.402 95.432C263.882 94.952 264.53 94.712 265.346 94.712H266.714C267.53 94.712 268.154 94.952 268.586 95.432C269.018 95.864 269.234 96.512 269.234 97.376V104H278.594C279.458 104 280.106 104.216 280.538 104.648C281.018 105.032 281.258 105.608 281.258 106.376V107.168C281.258 107.936 281.018 108.536 280.538 108.968C280.106 109.4 279.458 109.616 278.594 109.616H269.234V126.752C269.234 132.32 271.154 135.104 274.994 135.104C276.482 135.104 277.586 134.72 278.306 133.952C279.074 133.136 279.866 131.792 280.682 129.92C281.018 129.296 281.33 128.864 281.618 128.624C281.954 128.336 282.386 128.192 282.914 128.192ZM323.759 104C325.343 104 326.135 104.648 326.135 105.944V107.744C326.135 109.04 325.343 109.688 323.759 109.688H321.887L307.127 145.976C305.351 150.2 303.599 153.128 301.871 154.76C300.191 156.44 298.031 157.28 295.391 157.28C293.327 157.28 291.623 156.704 290.279 155.552C288.983 154.448 288.335 153.032 288.335 151.304C288.335 150.056 288.719 149.048 289.487 148.28C290.303 147.512 291.335 147.128 292.583 147.128C293.687 147.128 294.623 147.512 295.391 148.28C296.159 149.048 296.543 149.984 296.543 151.088C296.543 151.328 296.495 151.64 296.399 152.024C297.311 151.832 298.127 151.232 298.847 150.224C299.567 149.264 300.359 147.704 301.223 145.544L303.887 138.848L291.935 109.688H290.063C288.479 109.688 287.687 109.04 287.687 107.744V105.944C287.687 104.648 288.479 104 290.063 104H299.927C301.463 104 302.231 104.648 302.231 105.944V107.744C302.231 109.04 301.463 109.688 299.927 109.688H298.703L307.271 131.072L315.695 109.688H314.255C312.671 109.688 311.879 109.04 311.879 107.744V105.944C311.879 104.648 312.671 104 314.255 104H323.759Z" fill="url(#paint0_linear)"/>
<defs>
<linearGradient id="paint0_linear" x1="324.505" y1="158" x2="-4" y2="158" gradientUnits="userSpaceOnUse">
<stop stop-color="#1D2D44"/>
<stop offset="0.9998" stop-color="#3E5C76"/>
<stop offset="0.9999" stop-opacity="0"/>
<stop offset="1" stop-color="#3E5C76"/>
</linearGradient>
</defs>
</svg>
