<svg width="562" height="72" viewBox="0 0 562 72" fill="none" xmlns="http://www.w3.org/2000/svg">
<path d="M19.2343 25.56C23.2663 26.808 26.4103 28.104 28.6663 29.448C30.9223 30.792 32.5303 32.352 33.4903 34.128C34.4983 35.904 35.0023 38.088 35.0023 40.68C35.0023 43.32 34.2583 45.72 32.7703 47.88C31.3303 49.992 29.3143 51.672 26.7223 52.92C24.1303 54.12 21.2023 54.72 17.9383 54.72C14.3863 54.72 11.2423 54.216 8.50634 53.208C5.81834 52.152 3.73034 50.688 2.24234 48.816C0.802344 46.944 0.0823441 44.76 0.0823441 42.264C0.0823441 40.728 0.466344 39.504 1.23434 38.592C2.05034 37.68 3.15434 37.224 4.54634 37.224C5.74634 37.224 6.73034 37.608 7.49834 38.376C8.31434 39.144 8.72234 40.104 8.72234 41.256C8.72234 42.792 8.12234 43.992 6.92234 44.856C7.83434 46.104 9.22634 47.112 11.0983 47.88C12.9703 48.648 15.1783 49.032 17.7223 49.032C20.9863 49.032 23.5783 48.312 25.4983 46.872C27.4663 45.384 28.4503 43.44 28.4503 41.04C28.4503 39.36 28.1623 38.04 27.5863 37.08C27.0103 36.072 25.9543 35.184 24.4183 34.416C22.8823 33.6 20.4823 32.664 17.2183 31.608C13.1863 30.312 10.0183 28.992 7.71434 27.648C5.41034 26.256 3.73034 24.696 2.67434 22.968C1.66634 21.192 1.16234 19.008 1.16234 16.416C1.16234 13.824 1.90634 11.496 3.39434 9.432C4.88234 7.368 6.94634 5.76 9.58634 4.608C12.2743 3.456 15.3223 2.88 18.7303 2.88C23.4343 2.88 27.1543 3.912 29.8903 5.976C32.6263 8.04 33.9943 10.848 33.9943 14.4C33.9943 15.936 33.5863 17.16 32.7703 18.072C32.0023 18.984 30.9223 19.44 29.5303 19.44C28.3303 19.44 27.3223 19.08 26.5063 18.36C25.7383 17.592 25.3543 16.632 25.3543 15.48C25.3543 14.136 25.8343 13.032 26.7943 12.168C25.6423 9.768 22.7623 8.568 18.1543 8.568C14.9863 8.568 12.4423 9.264 10.5223 10.656C8.60234 12.048 7.64234 13.896 7.64234 16.2C7.64234 17.784 7.95434 19.08 8.57834 20.088C9.25034 21.048 10.3783 21.96 11.9623 22.824C13.5943 23.64 16.0183 24.552 19.2343 25.56ZM75.9135 34.2C75.9135 34.44 75.8415 35.496 75.6975 37.368H50.1375C50.3775 41.016 51.4335 43.896 53.3055 46.008C55.1775 48.072 57.6735 49.104 60.7935 49.104C62.9055 49.104 64.5855 48.768 65.8335 48.096C67.0815 47.424 68.2575 46.224 69.3615 44.496C69.7455 43.92 70.1055 43.512 70.4415 43.272C70.8255 43.032 71.2575 42.912 71.7375 42.912C72.4575 42.912 73.0815 43.152 73.6095 43.632C74.1855 44.064 74.4735 44.616 74.4735 45.288C74.4735 46.2 74.1375 47.136 73.4655 48.096C72.0735 50.352 70.3455 52.032 68.2815 53.136C66.2175 54.192 63.6495 54.72 60.5775 54.72C57.1695 54.72 54.1695 53.928 51.5775 52.344C49.0335 50.76 47.0415 48.528 45.6015 45.648C44.2095 42.768 43.5135 39.456 43.5135 35.712C43.5135 32.016 44.2095 28.776 45.6015 25.992C46.9935 23.208 48.9615 21.072 51.5055 19.584C54.0495 18.048 57.0015 17.28 60.3615 17.28C65.0175 17.28 68.7615 18.768 71.5935 21.744C74.4735 24.72 75.9135 28.872 75.9135 34.2ZM60.2175 22.608C57.3855 22.608 55.1055 23.472 53.3775 25.2C51.6975 26.88 50.6655 29.328 50.2815 32.544H69.3615C69.3135 25.92 66.2655 22.608 60.2175 22.608ZM84.6064 54C83.0224 54 82.2304 53.352 82.2304 52.056V50.256C82.2304 48.96 83.0224 48.312 84.6064 48.312H86.4784V6.408H84.6064C83.0224 6.408 82.2304 5.76 82.2304 4.464V2.664C82.2304 1.368 83.0224 0.719999 84.6064 0.719999H90.2944C91.0144 0.719999 91.6144 0.983999 92.0944 1.512C92.6224 1.992 92.8864 2.616 92.8864 3.384V48.312H94.7584C96.3424 48.312 97.1344 48.96 97.1344 50.256V52.056C97.1344 53.352 96.3424 54 94.7584 54H84.6064ZM135.96 34.2C135.96 34.44 135.888 35.496 135.744 37.368H110.184C110.424 41.016 111.48 43.896 113.352 46.008C115.224 48.072 117.72 49.104 120.84 49.104C122.952 49.104 124.632 48.768 125.88 48.096C127.128 47.424 128.304 46.224 129.408 44.496C129.792 43.92 130.152 43.512 130.488 43.272C130.872 43.032 131.304 42.912 131.784 42.912C132.504 42.912 133.128 43.152 133.656 43.632C134.232 44.064 134.52 44.616 134.52 45.288C134.52 46.2 134.184 47.136 133.512 48.096C132.12 50.352 130.392 52.032 128.328 53.136C126.264 54.192 123.696 54.72 120.624 54.72C117.216 54.72 114.216 53.928 111.624 52.344C109.08 50.76 107.088 48.528 105.648 45.648C104.256 42.768 103.56 39.456 103.56 35.712C103.56 32.016 104.256 28.776 105.648 25.992C107.04 23.208 109.008 21.072 111.552 19.584C114.096 18.048 117.048 17.28 120.408 17.28C125.064 17.28 128.808 18.768 131.64 21.744C134.52 24.72 135.96 28.872 135.96 34.2ZM120.264 22.608C117.432 22.608 115.152 23.472 113.424 25.2C111.744 26.88 110.712 29.328 110.328 32.544H129.408C129.36 25.92 126.312 22.608 120.264 22.608ZM171.581 42.912C172.301 42.912 172.925 43.152 173.453 43.632C174.029 44.064 174.317 44.616 174.317 45.288C174.317 46.2 173.981 47.136 173.309 48.096C171.917 50.352 170.189 52.032 168.125 53.136C166.061 54.192 163.493 54.72 160.421 54.72C157.013 54.72 154.013 53.928 151.421 52.344C148.877 50.76 146.885 48.528 145.445 45.648C144.053 42.768 143.357 39.456 143.357 35.712C143.357 32.016 144.053 28.776 145.445 25.992C146.885 23.208 148.877 21.072 151.421 19.584C153.965 18.048 156.917 17.28 160.277 17.28C163.061 17.28 165.533 17.76 167.693 18.72C169.853 19.68 171.533 21.048 172.733 22.824C173.933 24.552 174.533 26.52 174.533 28.728C174.533 30.216 174.125 31.392 173.309 32.256C172.493 33.12 171.413 33.552 170.069 33.552C168.869 33.552 167.861 33.168 167.045 32.4C166.277 31.632 165.893 30.672 165.893 29.52C165.893 28.176 166.349 27.096 167.261 26.28C166.685 25.176 165.773 24.336 164.525 23.76C163.325 23.184 161.837 22.896 160.061 22.896C156.797 22.896 154.277 24 152.501 26.208C150.773 28.416 149.909 31.56 149.909 35.64C149.909 39.816 150.845 43.104 152.717 45.504C154.637 47.904 157.277 49.104 160.637 49.104C162.749 49.104 164.429 48.768 165.677 48.096C166.925 47.424 168.101 46.224 169.205 44.496C169.589 43.92 169.949 43.512 170.285 43.272C170.669 43.032 171.101 42.912 171.581 42.912ZM207.161 42.192C207.929 42.192 208.601 42.432 209.177 42.912C209.753 43.344 210.041 43.896 210.041 44.568C210.041 45.336 209.801 46.2 209.321 47.16C208.217 49.368 206.897 51.192 205.361 52.632C203.825 54.024 201.713 54.72 199.025 54.72C195.089 54.72 192.089 53.544 190.025 51.192C188.009 48.84 187.001 45.408 187.001 40.896V23.616H182.537C181.673 23.616 181.001 23.4 180.521 22.968C180.089 22.536 179.873 21.936 179.873 21.168V20.376C179.873 19.608 180.089 19.032 180.521 18.648C181.001 18.216 181.673 18 182.537 18H187.001V11.376C187.001 10.512 187.217 9.864 187.649 9.432C188.129 8.952 188.777 8.712 189.593 8.712H190.961C191.777 8.712 192.401 8.952 192.833 9.432C193.265 9.864 193.481 10.512 193.481 11.376V18H202.841C203.705 18 204.353 18.216 204.785 18.648C205.265 19.032 205.505 19.608 205.505 20.376V21.168C205.505 21.936 205.265 22.536 204.785 22.968C204.353 23.4 203.705 23.616 202.841 23.616H193.481V40.752C193.481 46.32 195.401 49.104 199.241 49.104C200.729 49.104 201.833 48.72 202.553 47.952C203.321 47.136 204.113 45.792 204.929 43.92C205.265 43.296 205.577 42.864 205.865 42.624C206.201 42.336 206.633 42.192 207.161 42.192ZM255.332 3.6C263.012 3.6 268.916 5.688 273.044 9.864C277.22 13.992 279.308 19.92 279.308 27.648C279.308 32.976 278.324 37.632 276.356 41.616C274.388 45.552 271.58 48.6 267.932 50.76C264.284 52.92 260.012 54 255.116 54H238.844C237.26 54 236.468 53.352 236.468 52.056V50.256C236.468 48.96 237.26 48.312 238.844 48.312H240.716V9.288H238.844C237.26 9.288 236.468 8.64 236.468 7.344V5.544C236.468 4.248 237.26 3.6 238.844 3.6H255.332ZM254.468 48.312C260.324 48.312 264.812 46.536 267.932 42.984C271.1 39.432 272.684 34.392 272.684 27.864C272.684 21.576 271.22 16.92 268.292 13.896C265.364 10.824 260.9 9.288 254.9 9.288H247.196V48.312H254.468ZM293.896 11.016C292.552 11.016 291.424 10.56 290.512 9.648C289.6 8.736 289.144 7.608 289.144 6.264C289.144 4.92 289.6 3.816 290.512 2.952C291.424 2.04 292.552 1.584 293.896 1.584C295.24 1.584 296.344 2.04 297.208 2.952C298.12 3.816 298.576 4.92 298.576 6.264C298.576 7.608 298.12 8.736 297.208 9.648C296.344 10.56 295.24 11.016 293.896 11.016ZM289.936 54C288.4 54 287.632 53.352 287.632 52.056V50.256C287.632 48.96 288.4 48.312 289.936 48.312H291.808V23.688H289.936C288.4 23.688 287.632 23.04 287.632 21.744V19.944C287.632 18.648 288.4 18 289.936 18H295.624C296.392 18 297.016 18.264 297.496 18.792C298.024 19.272 298.288 19.896 298.288 20.664V48.312H300.16C301.744 48.312 302.536 48.96 302.536 50.256V52.056C302.536 53.352 301.744 54 300.16 54H289.936ZM331.841 11.52C330.737 11.52 329.801 11.136 329.033 10.368C328.313 9.6 327.953 8.664 327.953 7.56C327.953 6.888 328.097 6.312 328.385 5.832C327.857 5.688 327.257 5.616 326.585 5.616C324.665 5.616 323.225 6.216 322.265 7.416C321.353 8.616 320.897 10.464 320.897 12.96V18H329.753C331.529 18 332.417 18.792 332.417 20.376V21.168C332.417 21.936 332.201 22.536 331.769 22.968C331.337 23.4 330.665 23.616 329.753 23.616H320.897V48.312H324.353C325.889 48.312 326.657 48.96 326.657 50.256V52.056C326.657 53.352 325.889 54 324.353 54H312.617C311.033 54 310.241 53.352 310.241 52.056V50.256C310.241 48.96 311.033 48.312 312.617 48.312H314.489V23.616H309.953C309.089 23.616 308.417 23.4 307.937 22.968C307.505 22.536 307.289 21.936 307.289 21.168V20.376C307.289 19.656 307.505 19.08 307.937 18.648C308.417 18.216 309.089 18 309.953 18H314.489V12.384C314.489 8.592 315.569 5.592 317.729 3.384C319.937 1.128 322.865 -4.29153e-06 326.513 -4.29153e-06C329.297 -4.29153e-06 331.577 0.671996 333.353 2.016C335.177 3.312 336.089 4.968 336.089 6.984C336.089 8.376 335.705 9.48 334.937 10.296C334.169 11.112 333.137 11.52 331.841 11.52ZM360.88 11.52C359.776 11.52 358.84 11.136 358.072 10.368C357.352 9.6 356.992 8.664 356.992 7.56C356.992 6.888 357.136 6.312 357.424 5.832C356.896 5.688 356.296 5.616 355.624 5.616C353.704 5.616 352.264 6.216 351.304 7.416C350.392 8.616 349.936 10.464 349.936 12.96V18H358.792C360.568 18 361.456 18.792 361.456 20.376V21.168C361.456 21.936 361.24 22.536 360.808 22.968C360.376 23.4 359.704 23.616 358.792 23.616H349.936V48.312H353.392C354.928 48.312 355.696 48.96 355.696 50.256V52.056C355.696 53.352 354.928 54 353.392 54H341.656C340.072 54 339.28 53.352 339.28 52.056V50.256C339.28 48.96 340.072 48.312 341.656 48.312H343.528V23.616H338.992C338.128 23.616 337.456 23.4 336.976 22.968C336.544 22.536 336.328 21.936 336.328 21.168V20.376C336.328 19.656 336.544 19.08 336.976 18.648C337.456 18.216 338.128 18 338.992 18H343.528V12.384C343.528 8.592 344.608 5.592 346.768 3.384C348.976 1.128 351.904 -4.29153e-06 355.552 -4.29153e-06C358.336 -4.29153e-06 360.616 0.671996 362.392 2.016C364.216 3.312 365.128 4.968 365.128 6.984C365.128 8.376 364.744 9.48 363.976 10.296C363.208 11.112 362.176 11.52 360.88 11.52ZM376.091 11.016C374.747 11.016 373.619 10.56 372.707 9.648C371.795 8.736 371.339 7.608 371.339 6.264C371.339 4.92 371.795 3.816 372.707 2.952C373.619 2.04 374.747 1.584 376.091 1.584C377.435 1.584 378.539 2.04 379.403 2.952C380.315 3.816 380.771 4.92 380.771 6.264C380.771 7.608 380.315 8.736 379.403 9.648C378.539 10.56 377.435 11.016 376.091 11.016ZM372.131 54C370.595 54 369.827 53.352 369.827 52.056V50.256C369.827 48.96 370.595 48.312 372.131 48.312H374.003V23.688H372.131C370.595 23.688 369.827 23.04 369.827 21.744V19.944C369.827 18.648 370.595 18 372.131 18H377.819C378.587 18 379.211 18.264 379.691 18.792C380.219 19.272 380.483 19.896 380.483 20.664V48.312H382.355C383.939 48.312 384.731 48.96 384.731 50.256V52.056C384.731 53.352 383.939 54 382.355 54H372.131ZM419.292 42.912C420.012 42.912 420.636 43.152 421.164 43.632C421.74 44.064 422.028 44.616 422.028 45.288C422.028 46.2 421.692 47.136 421.02 48.096C419.628 50.352 417.9 52.032 415.836 53.136C413.772 54.192 411.204 54.72 408.132 54.72C404.724 54.72 401.724 53.928 399.132 52.344C396.588 50.76 394.596 48.528 393.156 45.648C391.764 42.768 391.068 39.456 391.068 35.712C391.068 32.016 391.764 28.776 393.156 25.992C394.596 23.208 396.588 21.072 399.132 19.584C401.676 18.048 404.628 17.28 407.988 17.28C410.772 17.28 413.244 17.76 415.404 18.72C417.564 19.68 419.244 21.048 420.444 22.824C421.644 24.552 422.244 26.52 422.244 28.728C422.244 30.216 421.836 31.392 421.02 32.256C420.204 33.12 419.124 33.552 417.78 33.552C416.58 33.552 415.572 33.168 414.756 32.4C413.988 31.632 413.604 30.672 413.604 29.52C413.604 28.176 414.06 27.096 414.972 26.28C414.396 25.176 413.484 24.336 412.236 23.76C411.036 23.184 409.548 22.896 407.772 22.896C404.508 22.896 401.988 24 400.212 26.208C398.484 28.416 397.62 31.56 397.62 35.64C397.62 39.816 398.556 43.104 400.428 45.504C402.348 47.904 404.988 49.104 408.348 49.104C410.46 49.104 412.14 48.768 413.388 48.096C414.636 47.424 415.812 46.224 416.916 44.496C417.3 43.92 417.66 43.512 417.996 43.272C418.38 43.032 418.812 42.912 419.292 42.912ZM464.159 48.312C465.695 48.312 466.463 48.96 466.463 50.256V52.056C466.463 53.352 465.695 54 464.159 54H458.471C457.703 54 457.055 53.76 456.527 53.28C456.047 52.752 455.807 52.104 455.807 51.336V45.936C454.751 48.48 453.119 50.592 450.911 52.272C448.751 53.904 446.447 54.72 443.999 54.72C440.063 54.72 437.135 53.4 435.215 50.76C433.343 48.12 432.407 44.064 432.407 38.592V23.688H430.535C428.999 23.688 428.231 23.04 428.231 21.744V19.944C428.231 18.648 428.999 18 430.535 18H436.367C437.039 18 437.615 18.264 438.095 18.792C438.623 19.272 438.887 19.896 438.887 20.664V37.584C438.887 40.512 439.079 42.792 439.463 44.424C439.895 46.056 440.591 47.256 441.551 48.024C442.559 48.744 443.903 49.104 445.583 49.104C447.311 49.104 448.967 48.528 450.551 47.376C452.135 46.224 453.407 44.712 454.367 42.84C455.327 40.92 455.807 38.928 455.807 36.864V23.688H453.935C452.351 23.688 451.559 23.04 451.559 21.744V19.944C451.559 18.648 452.351 18 453.935 18H459.695C460.463 18 461.087 18.264 461.567 18.792C462.047 19.272 462.287 19.896 462.287 20.664V48.312H464.159ZM474.489 54C472.905 54 472.113 53.352 472.113 52.056V50.256C472.113 48.96 472.905 48.312 474.489 48.312H476.361V6.408H474.489C472.905 6.408 472.113 5.76 472.113 4.464V2.664C472.113 1.368 472.905 0.719999 474.489 0.719999H480.177C480.897 0.719999 481.497 0.983999 481.977 1.512C482.505 1.992 482.769 2.616 482.769 3.384V48.312H484.641C486.225 48.312 487.017 48.96 487.017 50.256V52.056C487.017 53.352 486.225 54 484.641 54H474.489ZM518.715 42.192C519.483 42.192 520.155 42.432 520.731 42.912C521.307 43.344 521.595 43.896 521.595 44.568C521.595 45.336 521.355 46.2 520.875 47.16C519.771 49.368 518.451 51.192 516.915 52.632C515.379 54.024 513.267 54.72 510.579 54.72C506.643 54.72 503.643 53.544 501.579 51.192C499.563 48.84 498.555 45.408 498.555 40.896V23.616H494.091C493.227 23.616 492.555 23.4 492.075 22.968C491.643 22.536 491.427 21.936 491.427 21.168V20.376C491.427 19.608 491.643 19.032 492.075 18.648C492.555 18.216 493.227 18 494.091 18H498.555V11.376C498.555 10.512 498.771 9.864 499.203 9.432C499.683 8.952 500.331 8.712 501.147 8.712H502.515C503.331 8.712 503.955 8.952 504.387 9.432C504.819 9.864 505.035 10.512 505.035 11.376V18H514.395C515.259 18 515.907 18.216 516.339 18.648C516.819 19.032 517.059 19.608 517.059 20.376V21.168C517.059 21.936 516.819 22.536 516.339 22.968C515.907 23.4 515.259 23.616 514.395 23.616H505.035V40.752C505.035 46.32 506.955 49.104 510.795 49.104C512.283 49.104 513.387 48.72 514.107 47.952C514.875 47.136 515.667 45.792 516.483 43.92C516.819 43.296 517.131 42.864 517.419 42.624C517.755 42.336 518.187 42.192 518.715 42.192ZM559.56 18C561.144 18 561.936 18.648 561.936 19.944V21.744C561.936 23.04 561.144 23.688 559.56 23.688H557.688L542.928 59.976C541.152 64.2 539.4 67.128 537.672 68.76C535.992 70.44 533.832 71.28 531.192 71.28C529.128 71.28 527.424 70.704 526.08 69.552C524.784 68.448 524.136 67.032 524.136 65.304C524.136 64.056 524.52 63.048 525.288 62.28C526.104 61.512 527.136 61.128 528.384 61.128C529.488 61.128 530.424 61.512 531.192 62.28C531.96 63.048 532.344 63.984 532.344 65.088C532.344 65.328 532.296 65.64 532.2 66.024C533.112 65.832 533.928 65.232 534.648 64.224C535.368 63.264 536.16 61.704 537.024 59.544L539.688 52.848L527.736 23.688H525.864C524.28 23.688 523.488 23.04 523.488 21.744V19.944C523.488 18.648 524.28 18 525.864 18H535.728C537.264 18 538.032 18.648 538.032 19.944V21.744C538.032 23.04 537.264 23.688 535.728 23.688H534.504L543.072 45.072L551.496 23.688H550.056C548.472 23.688 547.68 23.04 547.68 21.744V19.944C547.68 18.648 548.472 18 550.056 18H559.56Z" fill="url(#paint0_linear)"/>
<defs>
<linearGradient id="paint0_linear" x1="558.011" y1="72.0002" x2="-5.00001" y2="72.0001" gradientUnits="userSpaceOnUse">
<stop stop-color="#1D2D44"/>
<stop offset="0.9998" stop-color="#3E5C76"/>
<stop offset="0.9999" stop-opacity="0"/>
<stop offset="1" stop-color="#3E5C76"/>
</linearGradient>
</defs>
</svg>
