<svg width="692" height="324" viewBox="0 0 692 324" fill="none" xmlns="http://www.w3.org/2000/svg">
<g clip-path="url(#clip0)">
<path d="M587.122 87.0974C591.035 89.1615 594.859 91.2738 598.595 93.4341" stroke="#404B7C" stroke-miterlimit="10"/>
<path d="M514.316 74.3076C531.381 77.9958 550.012 84.3627 568.781 93.3484C582.375 99.8135 595.383 107.444 607.658 116.155" stroke="#404B7C" stroke-miterlimit="10"/>
<path d="M457.514 323.196H632.491" stroke="#0D1321" stroke-miterlimit="10"/>
<path d="M498.348 71.5779C503.476 72.2081 508.815 73.1187 514.316 74.3076" stroke="#404B7C" stroke-miterlimit="10"/>
<path d="M448.164 125.057C438.689 111.199 435.435 98.1057 440.303 87.9484C445.686 76.7139 460.098 70.9671 479.633 70.5438" stroke="#404B7C" stroke-miterlimit="10"/>
<path d="M647.673 156.01C655.57 168.715 658.02 180.628 653.516 190.026C649.552 198.297 640.696 203.594 628.504 205.981" stroke="#404B7C" stroke-miterlimit="10"/>
<path d="M607.658 116.155C615.572 121.765 623.053 127.962 630.036 134.693" stroke="#404B7C" stroke-miterlimit="10"/>
<path d="M442.918 54.303C458.644 50.9262 478.995 51.5264 501.755 56.0107" stroke="#404B7C" stroke-miterlimit="10"/>
<path d="M671.804 156.008C678.845 166.287 683.174 176.234 684.306 185.293" stroke="#404B7C" stroke-miterlimit="10"/>
<path d="M598.595 93.4341C605.657 97.5151 612.376 101.736 618.752 106.097" stroke="#404B7C" stroke-miterlimit="10"/>
<path d="M608.715 244.836C606.909 244.938 605.167 245.541 603.685 246.577C602.202 247.613 601.038 249.041 600.322 250.701C598.223 255.772 600.926 261.728 604.982 265.426C609.039 269.123 614.249 271.236 618.984 274.014C625.343 277.746 631.057 282.925 634.239 289.574C637.421 296.223 637.759 304.459 634.019 310.811C630.548 316.707 624.235 320.235 618.215 323.49" stroke="#0D1321" stroke-miterlimit="10"/>
<path d="M614.062 248.877C618.156 248.877 621.476 247.266 621.476 245.278C621.476 243.29 618.156 241.678 614.062 241.678C609.967 241.678 606.647 243.29 606.647 245.278C606.647 247.266 609.967 248.877 614.062 248.877Z" fill="#57B894"/>
<path d="M619.993 272.591C624.088 272.591 627.407 270.98 627.407 268.992C627.407 267.004 624.088 265.392 619.993 265.392C615.898 265.392 612.579 267.004 612.579 268.992C612.579 270.98 615.898 272.591 619.993 272.591Z" fill="#57B894"/>
<path d="M606.435 276.402C610.53 276.402 613.85 274.791 613.85 272.803C613.85 270.815 610.53 269.203 606.435 269.203C602.341 269.203 599.021 270.815 599.021 272.803C599.021 274.791 602.341 276.402 606.435 276.402Z" fill="#57B894"/>
<path d="M627.619 296.305C631.714 296.305 635.033 294.694 635.033 292.706C635.033 290.718 631.714 289.106 627.619 289.106C623.524 289.106 620.205 290.718 620.205 292.706C620.205 294.694 623.524 296.305 627.619 296.305Z" fill="#57B894"/>
<path d="M642.448 296.305C646.543 296.305 649.862 294.694 649.862 292.706C649.862 290.718 646.543 289.106 642.448 289.106C638.353 289.106 635.033 290.718 635.033 292.706C635.033 294.694 638.353 296.305 642.448 296.305Z" fill="#57B894"/>
<path d="M568.983 105.062H573.16C573.16 105.062 576.989 134.634 574.204 137.417C571.419 140.2 563.762 141.94 562.718 137.417C561.673 132.894 562.718 116.195 562.718 116.195L568.983 105.062Z" fill="#404B7C"/>
<path d="M541.659 109.063C555.692 109.063 567.069 95.7456 567.069 79.3177C567.069 62.8898 555.692 49.5723 541.659 49.5723C527.626 49.5723 516.25 62.8898 516.25 79.3177C516.25 95.7456 527.626 109.063 541.659 109.063Z" fill="#404B7C"/>
<path d="M535.916 84.8841C535.916 84.8841 537.309 96.3648 533.132 98.8001C528.955 101.235 538.005 115.151 538.005 115.151L548.795 117.935L556.104 107.845L554.712 97.4085C554.712 97.4085 546.358 89.0589 550.187 81.4051L535.916 84.8841Z" fill="#FFC1C7"/>
<path opacity="0.1" d="M535.916 84.8841C535.916 84.8841 537.309 96.3648 533.132 98.8001C528.955 101.235 538.005 115.151 538.005 115.151L548.795 117.935L556.104 107.845L554.712 97.4085C554.712 97.4085 546.358 89.0589 550.187 81.4051L535.916 84.8841Z" fill="#0D1321"/>
<path d="M520.253 209.509C520.253 209.509 516.076 247.43 520.253 256.475C524.43 265.521 535.568 290.917 535.568 290.917L532.087 298.223L541.485 296.136L545.314 288.83C545.314 288.83 540.789 271.087 540.093 264.825C539.397 258.563 534.176 247.082 534.176 247.082L543.922 205.682L520.253 209.509Z" fill="#FFC1C7"/>
<path d="M553.32 203.17C553.32 203.17 553.668 241.439 556.104 247.375L554.712 299.212L562.37 300.234C562.37 300.234 573.508 256.747 571.767 246.31C570.027 235.873 572.116 198.299 572.116 198.299L553.32 203.17Z" fill="#FFC1C7"/>
<path d="M541.659 89.5807C548.964 89.5807 554.886 83.6618 554.886 76.3605C554.886 69.0592 548.964 63.1403 541.659 63.1403C534.355 63.1403 528.433 69.0592 528.433 76.3605C528.433 83.6618 534.355 89.5807 541.659 89.5807Z" fill="#FFC1C7"/>
<path d="M586.734 208.041C586.734 208.041 577.337 214.303 573.508 209.78C569.679 205.257 522.69 212.563 516.772 211.172C510.855 209.78 519.905 187.514 519.905 176.034C519.905 167.444 523.024 154.377 524.594 148.338C525.123 146.306 525.474 145.071 525.474 145.071C525.474 145.071 529.045 134.916 528.377 130.696C528.332 130.376 528.244 130.063 528.116 129.767C528.06 129.643 527.991 129.525 527.911 129.415C526.243 127.192 521.464 110.98 519.609 104.019C519.306 102.988 519.057 101.943 518.861 100.887C518.861 99.8438 531.739 96.7127 534.959 96.5631C538.182 96.4135 539.049 100.887 539.049 100.887C540.093 101.583 544.966 113.76 544.966 113.76L549.491 102.279C549.491 102.279 549.143 99.8438 548.795 99.8438C548.447 99.8438 553.943 96.5596 553.943 96.5596C553.943 96.5596 559.585 100.54 562.718 99.8438C565.85 99.148 573.16 105.41 573.16 105.41C573.16 105.41 560.281 137.765 565.502 144.723C570.723 151.681 586.734 208.041 586.734 208.041Z" fill="#404B7C"/>
<path d="M544.27 287.438C544.27 287.438 538.353 293.353 538.353 294.048L533.48 291.961C533.48 291.961 531.391 299.615 531.043 300.658C530.695 301.702 524.778 311.095 518.861 315.27C512.944 319.445 518.861 324.664 524.082 323.62C529.303 322.576 542.53 310.748 542.53 310.748C542.53 310.748 551.579 310.748 554.712 303.79C554.712 303.79 546.358 286.743 544.27 287.438Z" fill="#404B7C"/>
<path d="M561.673 297.473C561.673 297.473 552.732 290.979 552.156 297.009C551.579 303.039 551.579 316.259 551.579 316.259C551.579 316.259 548.795 324.957 557.497 323.913C566.198 322.869 566.895 320.434 566.895 320.434L562.718 303.735V296.429L561.673 297.473Z" fill="#404B7C"/>
<path opacity="0.1" d="M527.911 129.415C526.243 127.192 521.464 110.98 519.609 104.019H521.297C521.297 104.019 525.537 120.603 528.116 129.767C528.06 129.643 527.991 129.525 527.911 129.415Z" fill="#0D1321"/>
<path opacity="0.1" d="M550.883 152.377C550.883 152.377 546.01 152.724 528.259 149.246C527.022 149.008 525.798 148.705 524.594 148.337C525.123 146.306 525.474 145.071 525.474 145.071C525.474 145.071 529.045 134.916 528.377 130.696C529.209 133.618 529.829 135.59 529.999 135.677C530.695 136.025 552.972 139.852 556.104 141.244C559.237 142.635 550.883 152.377 550.883 152.377Z" fill="#0D1321"/>
<path opacity="0.1" d="M557.148 106.844C557.148 106.844 566.749 105.66 567.344 107.216C567.939 108.772 570.375 123.808 571.419 125.736C572.464 127.664 572.812 139.616 568.635 140.002C564.458 140.387 558.889 136.146 559.933 132.676C560.977 129.206 557.148 106.844 557.148 106.844Z" fill="#0D1321"/>
<path d="M552.276 138.809C552.276 138.809 566.894 140.548 569.331 138.809C571.767 137.069 581.861 137.069 579.773 141.94C577.685 146.81 559.585 147.158 559.585 147.158H549.143L552.276 138.809Z" fill="#FFC1C7"/>
<path d="M521.297 101.583H518.861C518.861 101.583 513.988 102.627 514.684 117.935C515.38 133.242 510.507 143.331 528.259 146.81C546.01 150.289 550.883 149.941 550.883 149.941C550.883 149.941 559.237 140.2 556.104 138.809C552.972 137.417 530.695 133.59 529.999 133.242C529.303 132.894 521.297 101.583 521.297 101.583Z" fill="#404B7C"/>
<path d="M567.076 108.45C567.076 108.45 560.977 85.5799 556.104 85.5799C551.231 85.5799 545.662 86.6236 549.839 91.1463C554.016 95.669 559.237 100.54 559.585 102.975C559.933 105.41 561.325 108.889 561.325 108.889L567.076 108.45Z" fill="#FFC1C7"/>
<path d="M558.541 106.844C558.541 106.844 568.141 105.66 568.736 107.216C569.331 108.772 571.767 123.808 572.812 125.736C573.856 127.664 574.204 139.616 570.027 140.002C565.85 140.387 560.281 136.146 561.325 132.676C562.37 129.206 558.541 106.844 558.541 106.844Z" fill="#404B7C"/>
<path d="M538.179 76.3605C545.099 76.3605 550.709 70.7532 550.709 63.8361C550.709 56.9191 545.099 51.3118 538.179 51.3118C531.258 51.3118 525.648 56.9191 525.648 63.8361C525.648 70.7532 531.258 76.3605 538.179 76.3605Z" fill="#404B7C"/>
<path d="M588.672 205.417C569.227 202.214 547.228 195.25 525.038 184.626C499.771 172.53 478.361 157.653 463.105 142.618" stroke="#404B7C" stroke-miterlimit="10"/>
<path d="M509.831 191.17C492.435 182.161 476.685 172.146 463.104 161.719" stroke="#404B7C" stroke-miterlimit="10"/>
<path d="M386.856 50.3785C398.374 50.3785 407.712 41.0455 407.712 29.5327C407.712 18.0198 398.374 8.68684 386.856 8.68684C375.338 8.68684 366 18.0198 366 29.5327C366 41.0455 375.338 50.3785 386.856 50.3785Z" fill="#404B7C"/>
<path d="M391.748 41.8857C403.267 41.8857 412.604 32.5527 412.604 21.0399C412.604 9.52708 403.267 0.194094 391.748 0.194094C380.23 0.194094 370.892 9.52708 370.892 21.0399C370.892 32.5527 380.23 41.8857 391.748 41.8857Z" stroke="#404B7C" stroke-miterlimit="10"/>
<path d="M676.825 116.956C683.527 116.956 688.959 111.526 688.959 104.828C688.959 98.1296 683.527 92.6995 676.825 92.6995C670.123 92.6995 664.691 98.1296 664.691 104.828C664.691 111.526 670.123 116.956 676.825 116.956Z" fill="#1D2D44"/>
<path d="M679.671 112.015C686.373 112.015 691.806 106.585 691.806 99.8867C691.806 93.1884 686.373 87.7582 679.671 87.7582C672.97 87.7582 667.537 93.1884 667.537 99.8867C667.537 106.585 672.97 112.015 679.671 112.015Z" stroke="#404B7C" stroke-miterlimit="10"/>
<path d="M455.468 248.69C465.102 248.69 472.911 240.884 472.911 231.255C472.911 221.626 465.102 213.821 455.468 213.821C445.834 213.821 438.025 221.626 438.025 231.255C438.025 240.884 445.834 248.69 455.468 248.69Z" fill="#1D2D44"/>
<path d="M459.56 241.587C469.193 241.587 477.003 233.781 477.003 224.152C477.003 214.523 469.193 206.717 459.56 206.717C449.926 206.717 442.116 214.523 442.116 224.152C442.116 233.781 449.926 241.587 459.56 241.587Z" stroke="#404B7C" stroke-miterlimit="10"/>
</g>
<path d="M63.3827 105.6C71.0627 105.6 76.9667 107.688 81.0947 111.864C85.2707 115.992 87.3587 121.92 87.3587 129.648C87.3587 134.976 86.3747 139.632 84.4067 143.616C82.4387 147.552 79.6307 150.6 75.9827 152.76C72.3347 154.92 68.0627 156 63.1667 156H46.8947C45.3107 156 44.5187 155.352 44.5187 154.056V152.256C44.5187 150.96 45.3107 150.312 46.8947 150.312H48.7667V111.288H46.8947C45.3107 111.288 44.5187 110.64 44.5187 109.344V107.544C44.5187 106.248 45.3107 105.6 46.8947 105.6H63.3827ZM62.5187 150.312C68.3747 150.312 72.8627 148.536 75.9827 144.984C79.1507 141.432 80.7347 136.392 80.7347 129.864C80.7347 123.576 79.2707 118.92 76.3427 115.896C73.4147 112.824 68.9507 111.288 62.9507 111.288H55.2467V150.312H62.5187ZM113.035 156.72C109.627 156.72 106.627 155.976 104.035 154.488C101.443 152.952 99.4506 150.792 98.0586 148.008C96.6666 145.224 95.9706 142.008 95.9706 138.36C95.9706 134.568 96.6906 131.232 98.1306 128.352C99.5706 125.472 101.587 123.24 104.179 121.656C106.771 120.072 109.795 119.28 113.251 119.28C116.659 119.28 119.659 120.048 122.251 121.584C124.843 123.072 126.835 125.208 128.227 127.992C129.619 130.776 130.315 133.992 130.315 137.64C130.315 141.432 129.595 144.768 128.155 147.648C126.715 150.528 124.699 152.76 122.107 154.344C119.515 155.928 116.491 156.72 113.035 156.72ZM113.035 151.104C116.443 151.104 119.083 149.928 120.955 147.576C122.827 145.224 123.763 141.936 123.763 137.712C123.763 133.584 122.851 130.416 121.027 128.208C119.203 126 116.611 124.896 113.251 124.896C109.891 124.896 107.251 126.096 105.331 128.496C103.459 130.848 102.523 134.112 102.523 138.288C102.523 142.368 103.435 145.536 105.259 147.792C107.083 150 109.675 151.104 113.035 151.104ZM172.367 150.312C173.903 150.312 174.671 150.96 174.671 152.256V154.056C174.671 155.352 173.903 156 172.367 156H166.679C165.911 156 165.263 155.76 164.735 155.28C164.255 154.752 164.015 154.104 164.015 153.336V147.936C162.959 150.48 161.327 152.592 159.119 154.272C156.959 155.904 154.655 156.72 152.207 156.72C148.271 156.72 145.343 155.4 143.423 152.76C141.551 150.12 140.615 146.064 140.615 140.592V125.688H138.743C137.207 125.688 136.438 125.04 136.438 123.744V121.944C136.438 120.648 137.207 120 138.743 120H144.575C145.247 120 145.823 120.264 146.303 120.792C146.831 121.272 147.095 121.896 147.095 122.664V139.584C147.095 142.512 147.287 144.792 147.671 146.424C148.103 148.056 148.799 149.256 149.759 150.024C150.767 150.744 152.111 151.104 153.791 151.104C155.519 151.104 157.175 150.528 158.759 149.376C160.343 148.224 161.615 146.712 162.575 144.84C163.535 142.92 164.015 140.928 164.015 138.864V125.688H162.143C160.559 125.688 159.767 125.04 159.767 123.744V121.944C159.767 120.648 160.559 120 162.143 120H167.903C168.671 120 169.295 120.264 169.775 120.792C170.255 121.272 170.495 121.896 170.495 122.664V150.312H172.367ZM215.61 120C217.194 120 217.986 120.648 217.986 121.944V123.744C217.986 125.04 217.194 125.688 215.61 125.688H213.738V154.2C213.738 160.488 212.322 165.24 209.49 168.456C206.658 171.672 202.458 173.28 196.89 173.28C194.346 173.28 192.018 172.896 189.906 172.128C187.842 171.36 186.21 170.328 185.01 169.032C183.858 167.736 183.282 166.272 183.282 164.64C183.282 163.2 183.666 162.072 184.434 161.256C185.202 160.44 186.234 160.032 187.53 160.032C188.634 160.032 189.546 160.416 190.266 161.184C191.034 161.952 191.418 162.912 191.418 164.064C191.418 164.928 191.202 165.6 190.77 166.08C192.114 167.136 194.034 167.664 196.53 167.664C200.322 167.664 203.058 166.632 204.738 164.568C206.466 162.504 207.33 159.168 207.33 154.56V148.8C206.466 151.056 204.906 152.952 202.65 154.488C200.442 155.976 198.09 156.72 195.594 156.72C192.714 156.72 190.17 155.976 187.962 154.488C185.802 153 184.122 150.888 182.922 148.152C181.77 145.368 181.194 142.128 181.194 138.432C181.194 132.48 182.586 127.8 185.37 124.392C188.202 120.984 192.066 119.28 196.962 119.28C199.074 119.28 201.066 119.808 202.938 120.864C204.858 121.92 206.466 123.384 207.762 125.256L208.05 122.304C208.194 120.768 208.986 120 210.426 120H215.61ZM197.034 151.104C198.906 151.104 200.634 150.6 202.218 149.592C203.802 148.536 205.05 147.12 205.962 145.344C206.874 143.568 207.33 141.624 207.33 139.512V130.152C205.986 128.472 204.474 127.176 202.794 126.264C201.162 125.352 199.434 124.896 197.61 124.896C194.394 124.896 191.946 126.096 190.266 128.496C188.586 130.848 187.746 134.28 187.746 138.792C187.746 142.68 188.562 145.704 190.194 147.864C191.826 150.024 194.106 151.104 197.034 151.104ZM260.073 150.312C261.609 150.312 262.377 150.96 262.377 152.256V154.056C262.377 155.352 261.609 156 260.073 156H249.849C248.313 156 247.545 155.352 247.545 154.056V152.256C247.545 150.96 248.313 150.312 249.849 150.312H251.721V136.416C251.721 132.24 251.169 129.288 250.065 127.56C249.009 125.784 247.209 124.896 244.665 124.896C242.889 124.896 241.161 125.496 239.481 126.696C237.849 127.848 236.505 129.36 235.449 131.232C234.441 133.104 233.937 135.072 233.937 137.136V150.312H235.809C237.393 150.312 238.185 150.96 238.185 152.256V154.056C238.185 155.352 237.393 156 235.809 156H225.657C224.073 156 223.281 155.352 223.281 154.056V152.256C223.281 150.96 224.073 150.312 225.657 150.312H227.529V108.408H225.657C224.073 108.408 223.281 107.76 223.281 106.464V104.664C223.281 103.368 224.073 102.72 225.657 102.72H231.345C232.065 102.72 232.665 102.984 233.145 103.512C233.673 103.992 233.937 104.616 233.937 105.384V128.064C234.993 125.568 236.673 123.48 238.977 121.8C241.281 120.12 243.681 119.28 246.177 119.28C250.161 119.28 253.161 120.648 255.177 123.384C257.193 126.072 258.201 130.08 258.201 135.408V150.312H260.073ZM300.392 120C301.976 120 302.768 120.648 302.768 121.944V123.744C302.768 125.04 301.976 125.688 300.392 125.688H298.52L283.76 161.976C281.984 166.2 280.232 169.128 278.504 170.76C276.824 172.44 274.664 173.28 272.024 173.28C269.96 173.28 268.256 172.704 266.912 171.552C265.616 170.448 264.968 169.032 264.968 167.304C264.968 166.056 265.352 165.048 266.12 164.28C266.936 163.512 267.968 163.128 269.216 163.128C270.32 163.128 271.256 163.512 272.024 164.28C272.792 165.048 273.176 165.984 273.176 167.088C273.176 167.328 273.128 167.64 273.032 168.024C273.944 167.832 274.76 167.232 275.48 166.224C276.2 165.264 276.992 163.704 277.856 161.544L280.52 154.848L268.568 125.688H266.696C265.112 125.688 264.32 125.04 264.32 123.744V121.944C264.32 120.648 265.112 120 266.696 120H276.56C278.096 120 278.864 120.648 278.864 121.944V123.744C278.864 125.04 278.096 125.688 276.56 125.688H275.336L283.904 147.072L292.328 125.688H290.888C289.304 125.688 288.512 125.04 288.512 123.744V121.944C288.512 120.648 289.304 120 290.888 120H300.392ZM312.196 127.416C311.716 127.416 311.284 127.248 310.9 126.912C310.564 126.528 310.396 126.096 310.396 125.616C310.396 125.184 310.564 124.776 310.9 124.392C313.588 120.888 314.932 118.128 314.932 116.112C314.932 115.728 314.86 115.44 314.716 115.248C314.572 115.008 314.332 114.864 313.996 114.816C311.404 114.192 310.108 112.56 310.108 109.92C310.108 108.432 310.588 107.232 311.548 106.32C312.508 105.36 313.732 104.88 315.22 104.88C316.948 104.88 318.292 105.48 319.252 106.68C320.212 107.832 320.692 109.392 320.692 111.36C320.692 116.256 318.46 121.224 313.996 126.264C313.42 127.032 312.82 127.416 312.196 127.416ZM343.931 135.048C348.443 136.344 351.635 137.832 353.507 139.512C355.379 141.144 356.315 143.328 356.315 146.064C356.315 148.128 355.715 149.976 354.515 151.608C353.315 153.192 351.611 154.44 349.403 155.352C347.243 156.264 344.747 156.72 341.915 156.72C337.451 156.72 333.875 155.88 331.187 154.2C328.547 152.472 327.227 150.24 327.227 147.504C327.227 146.112 327.611 145.008 328.379 144.192C329.147 143.376 330.179 142.968 331.475 142.968C332.579 142.968 333.491 143.352 334.211 144.12C334.979 144.888 335.363 145.824 335.363 146.928C335.363 147.936 335.051 148.752 334.427 149.376C335.579 151.008 338.051 151.824 341.843 151.824C344.435 151.824 346.403 151.368 347.747 150.456C349.139 149.544 349.835 148.32 349.835 146.784C349.835 145.776 349.619 144.96 349.187 144.336C348.755 143.664 347.987 143.088 346.883 142.608C345.827 142.08 344.195 141.504 341.987 140.88C338.387 139.872 335.579 138.864 333.563 137.856C331.595 136.8 330.179 135.648 329.315 134.4C328.451 133.104 328.019 131.496 328.019 129.576C328.019 127.56 328.619 125.784 329.819 124.248C331.019 122.664 332.675 121.44 334.787 120.576C336.947 119.712 339.395 119.28 342.131 119.28C346.403 119.28 349.739 120.048 352.139 121.584C354.539 123.072 355.739 125.16 355.739 127.848C355.739 129.24 355.355 130.368 354.587 131.232C353.819 132.048 352.811 132.456 351.563 132.456C350.411 132.456 349.451 132.072 348.683 131.304C347.963 130.536 347.603 129.576 347.603 128.424C347.603 127.416 347.915 126.6 348.539 125.976C347.483 124.776 345.323 124.176 342.059 124.176C339.803 124.176 337.979 124.656 336.587 125.616C335.195 126.576 334.499 127.824 334.499 129.36C334.499 130.176 334.763 130.872 335.291 131.448C335.819 132.024 336.731 132.576 338.027 133.104C339.371 133.632 341.339 134.28 343.931 135.048ZM40.8976 191.6C41.7136 191.6 42.3856 191.888 42.9136 192.464C43.4896 192.992 43.7776 193.664 43.7776 194.48V202.184C43.7776 203.768 43.1296 204.56 41.8336 204.56H40.0336C38.7376 204.56 38.0896 203.768 38.0896 202.184V197.288H27.2176V236.312H29.0896C30.6736 236.312 31.4656 236.96 31.4656 238.256V240.056C31.4656 241.352 30.6736 242 29.0896 242H18.8656C17.3296 242 16.5616 241.352 16.5616 240.056V238.256C16.5616 236.96 17.3296 236.312 18.8656 236.312H20.7376V197.288H9.86559V202.184C9.86559 203.768 9.21759 204.56 7.92159 204.56H6.12159C4.82559 204.56 4.17759 203.768 4.17759 202.184V194.48C4.17759 193.664 4.44159 192.992 4.96959 192.464C5.49759 191.888 6.16959 191.6 6.98559 191.6H40.8976ZM72.1051 205.28C74.0251 205.28 75.4891 205.736 76.4971 206.648C77.5051 207.512 78.0091 208.736 78.0091 210.32C78.0091 211.568 77.6011 212.624 76.7851 213.488C75.9691 214.304 74.9131 214.712 73.6171 214.712C72.4651 214.712 71.5051 214.376 70.7371 213.704C69.9691 212.984 69.5371 212.072 69.4411 210.968C67.9531 211.112 66.5851 211.832 65.3371 213.128C64.0891 214.376 63.0811 216.008 62.3131 218.024C61.5931 219.992 61.2331 222.104 61.2331 224.36V236.312H64.6171C66.2011 236.312 66.9931 236.96 66.9931 238.256V240.056C66.9931 241.352 66.2011 242 64.6171 242H52.8811C51.3451 242 50.5771 241.352 50.5771 240.056V238.256C50.5771 236.96 51.3451 236.312 52.8811 236.312H54.7531V211.688H52.8811C51.3451 211.688 50.5771 211.04 50.5771 209.744V207.944C50.5771 206.648 51.3451 206 52.8811 206H58.5691C59.3371 206 59.9611 206.264 60.4411 206.792C60.9691 207.272 61.2331 207.896 61.2331 208.664V215C62.0971 212.024 63.4891 209.672 65.4091 207.944C67.3771 206.168 69.6091 205.28 72.1051 205.28ZM89.677 199.016C88.333 199.016 87.205 198.56 86.293 197.648C85.381 196.736 84.925 195.608 84.925 194.264C84.925 192.92 85.381 191.816 86.293 190.952C87.205 190.04 88.333 189.584 89.677 189.584C91.021 189.584 92.125 190.04 92.989 190.952C93.901 191.816 94.357 192.92 94.357 194.264C94.357 195.608 93.901 196.736 92.989 197.648C92.125 198.56 91.021 199.016 89.677 199.016ZM85.717 242C84.181 242 83.413 241.352 83.413 240.056V238.256C83.413 236.96 84.181 236.312 85.717 236.312H87.589V211.688H85.717C84.181 211.688 83.413 211.04 83.413 209.744V207.944C83.413 206.648 84.181 206 85.717 206H91.405C92.173 206 92.797 206.264 93.277 206.792C93.805 207.272 94.069 207.896 94.069 208.664V236.312H95.941C97.525 236.312 98.317 236.96 98.317 238.256V240.056C98.317 241.352 97.525 242 95.941 242H85.717ZM138.638 206C140.174 206 140.942 206.648 140.942 207.944V209.744C140.942 211.04 140.174 211.688 138.638 211.688H136.766L124.958 240.488C124.574 241.496 123.83 242 122.726 242H120.782C119.774 242 119.03 241.496 118.55 240.488L106.814 211.688H104.942C103.358 211.688 102.566 211.04 102.566 209.744V207.944C102.566 206.648 103.358 206 104.942 206H114.806C116.342 206 117.11 206.648 117.11 207.944V209.744C117.11 211.04 116.342 211.688 114.806 211.688H113.582L122.078 232.928L130.574 211.688H129.134C127.55 211.688 126.758 211.04 126.758 209.744V207.944C126.758 206.648 127.55 206 129.134 206H138.638ZM152.818 199.016C151.474 199.016 150.346 198.56 149.434 197.648C148.522 196.736 148.066 195.608 148.066 194.264C148.066 192.92 148.522 191.816 149.434 190.952C150.346 190.04 151.474 189.584 152.818 189.584C154.162 189.584 155.266 190.04 156.13 190.952C157.042 191.816 157.498 192.92 157.498 194.264C157.498 195.608 157.042 196.736 156.13 197.648C155.266 198.56 154.162 199.016 152.818 199.016ZM148.858 242C147.322 242 146.554 241.352 146.554 240.056V238.256C146.554 236.96 147.322 236.312 148.858 236.312H150.73V211.688H148.858C147.322 211.688 146.554 211.04 146.554 209.744V207.944C146.554 206.648 147.322 206 148.858 206H154.546C155.314 206 155.938 206.264 156.418 206.792C156.946 207.272 157.21 207.896 157.21 208.664V236.312H159.082C160.666 236.312 161.458 236.96 161.458 238.256V240.056C161.458 241.352 160.666 242 159.082 242H148.858ZM198.971 236.312C200.507 236.312 201.275 236.96 201.275 238.256V240.056C201.275 241.352 200.507 242 198.971 242H193.211C192.491 242 191.867 241.76 191.339 241.28C190.859 240.752 190.619 240.104 190.619 239.336V234.8C189.707 237.056 188.123 238.952 185.867 240.488C183.659 241.976 181.307 242.72 178.811 242.72C175.451 242.72 172.739 241.76 170.675 239.84C168.611 237.872 167.579 235.28 167.579 232.064C167.579 228.704 168.707 226.112 170.963 224.288C173.267 222.464 176.531 221.552 180.755 221.552C183.971 221.552 187.259 221.936 190.619 222.704V219.464C190.619 216.488 189.923 214.28 188.531 212.84C187.139 211.4 184.979 210.68 182.051 210.68C179.795 210.68 178.115 211.112 177.011 211.976C177.347 212.552 177.515 213.176 177.515 213.848C177.515 214.952 177.131 215.888 176.363 216.656C175.595 217.424 174.659 217.808 173.555 217.808C172.259 217.808 171.227 217.4 170.459 216.584C169.691 215.768 169.307 214.664 169.307 213.272C169.307 210.92 170.531 209 172.979 207.512C175.427 206.024 178.547 205.28 182.339 205.28C187.091 205.28 190.715 206.552 193.211 209.096C195.755 211.64 197.027 215.24 197.027 219.896V236.312H198.971ZM180.323 237.464C182.147 237.464 183.827 236.984 185.363 236.024C186.947 235.016 188.195 233.696 189.107 232.064C190.067 230.384 190.571 228.56 190.619 226.592C188.459 226.256 185.483 226.088 181.691 226.088C176.507 226.088 173.915 228.008 173.915 231.848C173.915 233.624 174.491 235.016 175.643 236.024C176.795 236.984 178.355 237.464 180.323 237.464ZM265.587 217.088C266.355 217.088 266.979 217.328 267.459 217.808C267.987 218.24 268.251 218.816 268.251 219.536V239.48C268.251 240.296 268.011 240.944 267.531 241.424C267.099 241.904 266.499 242.144 265.731 242.144H265.227C263.787 242.144 262.995 241.376 262.851 239.84L262.275 235.664C261.075 237.824 259.299 239.552 256.947 240.848C254.643 242.096 252.051 242.72 249.171 242.72C244.899 242.72 241.203 241.688 238.083 239.624C234.963 237.512 232.563 234.488 230.883 230.552C229.251 226.616 228.435 221.984 228.435 216.656C228.435 211.28 229.299 206.672 231.027 202.832C232.755 198.944 235.251 195.992 238.515 193.976C241.779 191.912 245.667 190.88 250.179 190.88C253.347 190.88 256.275 191.456 258.963 192.608C261.699 193.76 263.859 195.32 265.443 197.288C267.027 199.208 267.819 201.344 267.819 203.696C267.819 205.232 267.411 206.456 266.595 207.368C265.779 208.28 264.675 208.736 263.283 208.736C262.083 208.736 261.075 208.352 260.259 207.584C259.491 206.816 259.107 205.856 259.107 204.704C259.107 203.264 259.635 202.136 260.691 201.32C259.827 199.88 258.459 198.728 256.587 197.864C254.763 197 252.651 196.568 250.251 196.568C245.211 196.568 241.419 198.248 238.875 201.608C236.331 204.968 235.059 209.96 235.059 216.584C235.059 223.256 236.307 228.344 238.803 231.848C241.299 235.304 244.947 237.032 249.747 237.032C253.443 237.032 256.371 236.024 258.531 234.008C260.691 231.992 261.771 229.28 261.771 225.872V222.776H250.395C249.627 222.776 248.979 222.56 248.451 222.128C247.971 221.648 247.731 221.048 247.731 220.328V219.536C247.731 218.816 247.971 218.24 248.451 217.808C248.979 217.328 249.627 217.088 250.395 217.088H265.587ZM309.221 236.312C310.757 236.312 311.525 236.96 311.525 238.256V240.056C311.525 241.352 310.757 242 309.221 242H303.461C302.741 242 302.117 241.76 301.589 241.28C301.109 240.752 300.869 240.104 300.869 239.336V234.8C299.957 237.056 298.373 238.952 296.117 240.488C293.909 241.976 291.557 242.72 289.061 242.72C285.701 242.72 282.989 241.76 280.925 239.84C278.861 237.872 277.829 235.28 277.829 232.064C277.829 228.704 278.957 226.112 281.213 224.288C283.517 222.464 286.781 221.552 291.005 221.552C294.221 221.552 297.509 221.936 300.869 222.704V219.464C300.869 216.488 300.173 214.28 298.781 212.84C297.389 211.4 295.229 210.68 292.301 210.68C290.045 210.68 288.365 211.112 287.261 211.976C287.597 212.552 287.765 213.176 287.765 213.848C287.765 214.952 287.381 215.888 286.613 216.656C285.845 217.424 284.909 217.808 283.805 217.808C282.509 217.808 281.477 217.4 280.709 216.584C279.941 215.768 279.557 214.664 279.557 213.272C279.557 210.92 280.781 209 283.229 207.512C285.677 206.024 288.797 205.28 292.589 205.28C297.341 205.28 300.965 206.552 303.461 209.096C306.005 211.64 307.277 215.24 307.277 219.896V236.312H309.221ZM290.573 237.464C292.397 237.464 294.077 236.984 295.613 236.024C297.197 235.016 298.445 233.696 299.357 232.064C300.317 230.384 300.821 228.56 300.869 226.592C298.709 226.256 295.733 226.088 291.941 226.088C286.757 226.088 284.165 228.008 284.165 231.848C284.165 233.624 284.741 235.016 285.893 236.024C287.045 236.984 288.605 237.464 290.573 237.464ZM375.087 236.312C376.623 236.312 377.391 236.96 377.391 238.256V240.056C377.391 241.352 376.623 242 375.087 242H365.079C363.495 242 362.703 241.352 362.703 240.056V238.256C362.703 236.96 363.495 236.312 365.079 236.312H366.735V222.416C366.735 219.44 366.543 217.136 366.159 215.504C365.775 213.872 365.127 212.696 364.215 211.976C363.351 211.256 362.103 210.896 360.471 210.896C358.791 210.896 357.183 211.472 355.647 212.624C354.111 213.776 352.887 215.288 351.975 217.16C351.063 219.032 350.607 221.024 350.607 223.136V236.312H352.263C353.847 236.312 354.639 236.96 354.639 238.256V240.056C354.639 241.352 353.847 242 352.263 242H342.471C340.887 242 340.095 241.352 340.095 240.056V238.256C340.095 236.96 340.887 236.312 342.471 236.312H344.127V222.416C344.127 219.44 343.935 217.136 343.551 215.504C343.167 213.872 342.519 212.696 341.607 211.976C340.743 211.256 339.495 210.896 337.863 210.896C336.183 210.896 334.575 211.472 333.039 212.624C331.551 213.776 330.327 215.288 329.367 217.16C328.455 219.032 327.999 221.024 327.999 223.136V236.312H329.655C331.239 236.312 332.031 236.96 332.031 238.256V240.056C332.031 241.352 331.239 242 329.655 242H319.647C318.111 242 317.343 241.352 317.343 240.056V238.256C317.343 236.96 318.111 236.312 319.647 236.312H321.519V211.688H319.647C318.111 211.688 317.343 211.04 317.343 209.744V207.944C317.343 206.648 318.111 206 319.647 206H325.335C326.103 206 326.727 206.264 327.207 206.792C327.735 207.272 327.999 207.896 327.999 208.664V213.992C329.007 211.448 330.567 209.36 332.679 207.728C334.839 206.096 337.071 205.28 339.375 205.28C342.255 205.28 344.559 206.024 346.287 207.512C348.063 209 349.287 211.28 349.959 214.352C351.351 211.472 353.103 209.24 355.215 207.656C357.327 206.072 359.583 205.28 361.983 205.28C365.775 205.28 368.583 206.6 370.407 209.24C372.279 211.88 373.215 215.936 373.215 221.408V236.312H375.087ZM415.914 222.2C415.914 222.44 415.842 223.496 415.698 225.368H390.138C390.378 229.016 391.434 231.896 393.306 234.008C395.178 236.072 397.674 237.104 400.794 237.104C402.906 237.104 404.586 236.768 405.834 236.096C407.082 235.424 408.258 234.224 409.362 232.496C409.746 231.92 410.106 231.512 410.442 231.272C410.826 231.032 411.258 230.912 411.738 230.912C412.458 230.912 413.082 231.152 413.61 231.632C414.186 232.064 414.474 232.616 414.474 233.288C414.474 234.2 414.138 235.136 413.466 236.096C412.074 238.352 410.346 240.032 408.282 241.136C406.218 242.192 403.65 242.72 400.578 242.72C397.17 242.72 394.17 241.928 391.578 240.344C389.034 238.76 387.042 236.528 385.602 233.648C384.21 230.768 383.514 227.456 383.514 223.712C383.514 220.016 384.21 216.776 385.602 213.992C386.994 211.208 388.962 209.072 391.506 207.584C394.05 206.048 397.002 205.28 400.362 205.28C405.018 205.28 408.762 206.768 411.594 209.744C414.474 212.72 415.914 216.872 415.914 222.2ZM400.218 210.608C397.386 210.608 395.106 211.472 393.378 213.2C391.698 214.88 390.666 217.328 390.282 220.544H409.362C409.314 213.92 406.266 210.608 400.218 210.608Z" fill="url(#paint0_linear)"/>
<defs>
<linearGradient id="paint0_linear" x1="415.579" y1="260" x2="-4.64394e-06" y2="260" gradientUnits="userSpaceOnUse">
<stop stop-color="#1D2D44"/>
<stop offset="0.9998" stop-color="#3E5C76"/>
<stop offset="0.9999" stop-opacity="0"/>
<stop offset="1" stop-color="#3E5C76"/>
</linearGradient>
<clipPath id="clip0">
<rect width="326" height="324" fill="white" transform="translate(366)"/>
</clipPath>
</defs>
</svg>
