<svg width="760" height="399" viewBox="0 0 760 399" fill="none" xmlns="http://www.w3.org/2000/svg">
<g clip-path="url(#clip0)">
<path d="M438.122 87.0974C442.035 89.1615 445.859 91.2738 449.595 93.4341" stroke="#404B7C" stroke-miterlimit="10"/>
<path d="M365.316 74.3076C382.381 77.9958 401.012 84.3627 419.781 93.3484C433.375 99.8135 446.383 107.444 458.658 116.155" stroke="#404B7C" stroke-miterlimit="10"/>
<path d="M308.514 323.196H483.491" stroke="#0D1321" stroke-miterlimit="10"/>
<path d="M349.348 71.5779C354.476 72.2081 359.815 73.1187 365.316 74.3076" stroke="#404B7C" stroke-miterlimit="10"/>
<path d="M299.164 125.057C289.689 111.199 286.435 98.1057 291.303 87.9484C296.686 76.7139 311.098 70.9671 330.633 70.5438" stroke="#404B7C" stroke-miterlimit="10"/>
<path d="M498.673 156.01C506.57 168.715 509.02 180.628 504.516 190.026C500.552 198.297 491.696 203.594 479.504 205.981" stroke="#404B7C" stroke-miterlimit="10"/>
<path d="M458.658 116.155C466.572 121.765 474.053 127.962 481.036 134.693" stroke="#404B7C" stroke-miterlimit="10"/>
<path d="M293.918 54.303C309.644 50.9262 329.995 51.5264 352.755 56.0107" stroke="#404B7C" stroke-miterlimit="10"/>
<path d="M522.804 156.008C529.845 166.287 534.174 176.234 535.306 185.293" stroke="#404B7C" stroke-miterlimit="10"/>
<path d="M449.595 93.4341C456.657 97.5151 463.376 101.736 469.752 106.097" stroke="#404B7C" stroke-miterlimit="10"/>
<path d="M459.715 244.836C457.909 244.938 456.167 245.541 454.685 246.577C453.202 247.613 452.038 249.041 451.322 250.701C449.223 255.772 451.926 261.728 455.982 265.426C460.039 269.123 465.249 271.236 469.984 274.014C476.343 277.746 482.057 282.925 485.239 289.574C488.421 296.223 488.759 304.459 485.019 310.811C481.548 316.707 475.235 320.235 469.215 323.49" stroke="#0D1321" stroke-miterlimit="10"/>
<path d="M465.062 248.877C469.156 248.877 472.476 247.266 472.476 245.278C472.476 243.29 469.156 241.678 465.062 241.678C460.967 241.678 457.647 243.29 457.647 245.278C457.647 247.266 460.967 248.877 465.062 248.877Z" fill="#57B894"/>
<path d="M470.993 272.591C475.088 272.591 478.407 270.98 478.407 268.992C478.407 267.004 475.088 265.392 470.993 265.392C466.898 265.392 463.579 267.004 463.579 268.992C463.579 270.98 466.898 272.591 470.993 272.591Z" fill="#57B894"/>
<path d="M457.435 276.402C461.53 276.402 464.85 274.791 464.85 272.803C464.85 270.815 461.53 269.203 457.435 269.203C453.341 269.203 450.021 270.815 450.021 272.803C450.021 274.791 453.341 276.402 457.435 276.402Z" fill="#57B894"/>
<path d="M478.619 296.305C482.714 296.305 486.033 294.694 486.033 292.706C486.033 290.718 482.714 289.106 478.619 289.106C474.524 289.106 471.205 290.718 471.205 292.706C471.205 294.694 474.524 296.305 478.619 296.305Z" fill="#57B894"/>
<path d="M493.448 296.305C497.543 296.305 500.862 294.694 500.862 292.706C500.862 290.718 497.543 289.106 493.448 289.106C489.353 289.106 486.033 290.718 486.033 292.706C486.033 294.694 489.353 296.305 493.448 296.305Z" fill="#57B894"/>
<path d="M419.983 105.062H424.16C424.16 105.062 427.989 134.634 425.204 137.417C422.419 140.2 414.762 141.94 413.718 137.417C412.673 132.894 413.718 116.195 413.718 116.195L419.983 105.062Z" fill="#404B7C"/>
<path d="M392.659 109.063C406.692 109.063 418.069 95.7456 418.069 79.3177C418.069 62.8898 406.692 49.5723 392.659 49.5723C378.626 49.5723 367.25 62.8898 367.25 79.3177C367.25 95.7456 378.626 109.063 392.659 109.063Z" fill="#404B7C"/>
<path d="M386.916 84.8841C386.916 84.8841 388.309 96.3648 384.132 98.8001C379.955 101.235 389.005 115.151 389.005 115.151L399.795 117.935L407.104 107.845L405.712 97.4085C405.712 97.4085 397.358 89.0589 401.187 81.4051L386.916 84.8841Z" fill="#FFC1C7"/>
<path opacity="0.1" d="M386.916 84.8841C386.916 84.8841 388.309 96.3648 384.132 98.8001C379.955 101.235 389.005 115.151 389.005 115.151L399.795 117.935L407.104 107.845L405.712 97.4085C405.712 97.4085 397.358 89.0589 401.187 81.4051L386.916 84.8841Z" fill="#0D1321"/>
<path d="M371.253 209.509C371.253 209.509 367.076 247.43 371.253 256.475C375.43 265.521 386.568 290.917 386.568 290.917L383.087 298.223L392.485 296.136L396.314 288.83C396.314 288.83 391.789 271.087 391.093 264.825C390.397 258.563 385.176 247.082 385.176 247.082L394.922 205.682L371.253 209.509Z" fill="#FFC1C7"/>
<path d="M404.32 203.17C404.32 203.17 404.668 241.439 407.104 247.375L405.712 299.212L413.37 300.234C413.37 300.234 424.508 256.747 422.767 246.31C421.027 235.873 423.116 198.299 423.116 198.299L404.32 203.17Z" fill="#FFC1C7"/>
<path d="M392.659 89.5807C399.964 89.5807 405.886 83.6618 405.886 76.3605C405.886 69.0592 399.964 63.1403 392.659 63.1403C385.355 63.1403 379.433 69.0592 379.433 76.3605C379.433 83.6618 385.355 89.5807 392.659 89.5807Z" fill="#FFC1C7"/>
<path d="M437.734 208.041C437.734 208.041 428.337 214.303 424.508 209.78C420.679 205.257 373.69 212.563 367.772 211.172C361.855 209.78 370.905 187.514 370.905 176.034C370.905 167.444 374.024 154.377 375.594 148.338C376.123 146.306 376.474 145.071 376.474 145.071C376.474 145.071 380.045 134.916 379.377 130.696C379.332 130.376 379.244 130.063 379.116 129.767C379.06 129.643 378.991 129.525 378.911 129.415C377.243 127.192 372.464 110.98 370.609 104.019C370.306 102.988 370.057 101.943 369.861 100.887C369.861 99.8438 382.739 96.7127 385.959 96.5631C389.182 96.4135 390.049 100.887 390.049 100.887C391.093 101.583 395.966 113.76 395.966 113.76L400.491 102.279C400.491 102.279 400.143 99.8438 399.795 99.8438C399.447 99.8438 404.943 96.5596 404.943 96.5596C404.943 96.5596 410.585 100.54 413.718 99.8438C416.85 99.148 424.16 105.41 424.16 105.41C424.16 105.41 411.281 137.765 416.502 144.723C421.723 151.681 437.734 208.041 437.734 208.041Z" fill="#404B7C"/>
<path d="M395.27 287.438C395.27 287.438 389.353 293.353 389.353 294.048L384.48 291.961C384.48 291.961 382.391 299.615 382.043 300.658C381.695 301.702 375.778 311.095 369.861 315.27C363.944 319.445 369.861 324.664 375.082 323.62C380.303 322.576 393.53 310.748 393.53 310.748C393.53 310.748 402.579 310.748 405.712 303.79C405.712 303.79 397.358 286.743 395.27 287.438Z" fill="#404B7C"/>
<path d="M412.673 297.473C412.673 297.473 403.732 290.979 403.156 297.009C402.579 303.039 402.579 316.259 402.579 316.259C402.579 316.259 399.795 324.957 408.497 323.913C417.198 322.869 417.895 320.434 417.895 320.434L413.718 303.735V296.429L412.673 297.473Z" fill="#404B7C"/>
<path opacity="0.1" d="M378.911 129.415C377.243 127.192 372.464 110.98 370.609 104.019H372.297C372.297 104.019 376.537 120.603 379.116 129.767C379.06 129.643 378.991 129.525 378.911 129.415Z" fill="#0D1321"/>
<path opacity="0.1" d="M401.883 152.377C401.883 152.377 397.01 152.724 379.259 149.246C378.022 149.008 376.798 148.705 375.594 148.337C376.123 146.306 376.474 145.071 376.474 145.071C376.474 145.071 380.045 134.916 379.377 130.696C380.209 133.618 380.829 135.59 380.999 135.677C381.695 136.025 403.972 139.852 407.104 141.244C410.237 142.635 401.883 152.377 401.883 152.377Z" fill="#0D1321"/>
<path opacity="0.1" d="M408.148 106.844C408.148 106.844 417.749 105.66 418.344 107.216C418.939 108.772 421.375 123.808 422.419 125.736C423.464 127.664 423.812 139.616 419.635 140.002C415.458 140.387 409.889 136.146 410.933 132.676C411.977 129.206 408.148 106.844 408.148 106.844Z" fill="#0D1321"/>
<path d="M403.276 138.809C403.276 138.809 417.894 140.548 420.331 138.809C422.767 137.069 432.861 137.069 430.773 141.94C428.685 146.81 410.585 147.158 410.585 147.158H400.143L403.276 138.809Z" fill="#FFC1C7"/>
<path d="M372.297 101.583H369.861C369.861 101.583 364.988 102.627 365.684 117.935C366.38 133.242 361.507 143.331 379.259 146.81C397.01 150.289 401.883 149.941 401.883 149.941C401.883 149.941 410.237 140.2 407.104 138.809C403.972 137.417 381.695 133.59 380.999 133.242C380.303 132.894 372.297 101.583 372.297 101.583Z" fill="#404B7C"/>
<path d="M418.076 108.45C418.076 108.45 411.977 85.5799 407.104 85.5799C402.231 85.5799 396.662 86.6236 400.839 91.1463C405.016 95.669 410.237 100.54 410.585 102.975C410.933 105.41 412.325 108.889 412.325 108.889L418.076 108.45Z" fill="#FFC1C7"/>
<path d="M409.541 106.844C409.541 106.844 419.141 105.66 419.736 107.216C420.331 108.772 422.767 123.808 423.812 125.736C424.856 127.664 425.204 139.616 421.027 140.002C416.85 140.387 411.281 136.146 412.325 132.676C413.37 129.206 409.541 106.844 409.541 106.844Z" fill="#404B7C"/>
<path d="M389.179 76.3605C396.099 76.3605 401.709 70.7532 401.709 63.8362C401.709 56.9191 396.099 51.3118 389.179 51.3118C382.258 51.3118 376.648 56.9191 376.648 63.8362C376.648 70.7532 382.258 76.3605 389.179 76.3605Z" fill="#404B7C"/>
<path d="M439.672 205.417C420.227 202.214 398.228 195.25 376.038 184.626C350.771 172.53 329.361 157.653 314.105 142.618" stroke="#404B7C" stroke-miterlimit="10"/>
<path d="M360.831 191.17C343.435 182.161 327.685 172.146 314.104 161.719" stroke="#404B7C" stroke-miterlimit="10"/>
<path d="M237.856 50.3785C249.374 50.3785 258.712 41.0455 258.712 29.5327C258.712 18.0198 249.374 8.68684 237.856 8.68684C226.338 8.68684 217 18.0198 217 29.5327C217 41.0455 226.338 50.3785 237.856 50.3785Z" fill="#404B7C"/>
<path d="M242.748 41.8857C254.267 41.8857 263.604 32.5527 263.604 21.0399C263.604 9.52708 254.267 0.194092 242.748 0.194092C231.23 0.194092 221.892 9.52708 221.892 21.0399C221.892 32.5527 231.23 41.8857 242.748 41.8857Z" stroke="#404B7C" stroke-miterlimit="10"/>
<path d="M527.825 116.956C534.527 116.956 539.959 111.526 539.959 104.828C539.959 98.1296 534.527 92.6995 527.825 92.6995C521.123 92.6995 515.691 98.1296 515.691 104.828C515.691 111.526 521.123 116.956 527.825 116.956Z" fill="#1D2D44"/>
<path d="M530.671 112.015C537.373 112.015 542.806 106.585 542.806 99.8867C542.806 93.1884 537.373 87.7582 530.671 87.7582C523.97 87.7582 518.537 93.1884 518.537 99.8867C518.537 106.585 523.97 112.015 530.671 112.015Z" stroke="#404B7C" stroke-miterlimit="10"/>
<path d="M306.468 248.69C316.102 248.69 323.911 240.884 323.911 231.255C323.911 221.626 316.102 213.821 306.468 213.821C296.834 213.821 289.025 221.626 289.025 231.255C289.025 240.884 296.834 248.69 306.468 248.69Z" fill="#1D2D44"/>
<path d="M310.56 241.587C320.193 241.587 328.003 233.781 328.003 224.152C328.003 214.523 320.193 206.717 310.56 206.717C300.926 206.717 293.116 214.523 293.116 224.152C293.116 233.781 300.926 241.587 310.56 241.587Z" stroke="#404B7C" stroke-miterlimit="10"/>
</g>
<path d="M23.328 330.6C31.008 330.6 36.912 332.688 41.04 336.864C45.216 340.992 47.304 346.92 47.304 354.648C47.304 359.976 46.32 364.632 44.352 368.616C42.384 372.552 39.576 375.6 35.928 377.76C32.28 379.92 28.008 381 23.112 381H6.84C5.256 381 4.464 380.352 4.464 379.056V377.256C4.464 375.96 5.256 375.312 6.84 375.312H8.712V336.288H6.84C5.256 336.288 4.464 335.64 4.464 334.344V332.544C4.464 331.248 5.256 330.6 6.84 330.6H23.328ZM22.464 375.312C28.32 375.312 32.808 373.536 35.928 369.984C39.096 366.432 40.68 361.392 40.68 354.864C40.68 348.576 39.216 343.92 36.288 340.896C33.36 337.824 28.896 336.288 22.896 336.288H15.192V375.312H22.464ZM72.9799 381.72C69.5719 381.72 66.5719 380.976 63.9799 379.488C61.3879 377.952 59.3959 375.792 58.0039 373.008C56.6119 370.224 55.9159 367.008 55.9159 363.36C55.9159 359.568 56.6359 356.232 58.0759 353.352C59.5159 350.472 61.5319 348.24 64.1239 346.656C66.7159 345.072 69.7399 344.28 73.1959 344.28C76.6039 344.28 79.6039 345.048 82.1959 346.584C84.7879 348.072 86.7799 350.208 88.1719 352.992C89.5639 355.776 90.2599 358.992 90.2599 362.64C90.2599 366.432 89.5399 369.768 88.0999 372.648C86.6599 375.528 84.6439 377.76 82.0519 379.344C79.4599 380.928 76.4359 381.72 72.9799 381.72ZM72.9799 376.104C76.3879 376.104 79.0279 374.928 80.8999 372.576C82.7719 370.224 83.7079 366.936 83.7079 362.712C83.7079 358.584 82.7959 355.416 80.9719 353.208C79.1479 351 76.5559 349.896 73.1959 349.896C69.8359 349.896 67.1959 351.096 65.2759 353.496C63.4039 355.848 62.4679 359.112 62.4679 363.288C62.4679 367.368 63.3799 370.536 65.2039 372.792C67.0279 375 69.6199 376.104 72.9799 376.104ZM132.312 375.312C133.848 375.312 134.616 375.96 134.616 377.256V379.056C134.616 380.352 133.848 381 132.312 381H126.624C125.856 381 125.208 380.76 124.68 380.28C124.2 379.752 123.96 379.104 123.96 378.336V372.936C122.904 375.48 121.272 377.592 119.064 379.272C116.904 380.904 114.6 381.72 112.152 381.72C108.216 381.72 105.288 380.4 103.368 377.76C101.496 375.12 100.56 371.064 100.56 365.592V350.688H98.6878C97.1518 350.688 96.3838 350.04 96.3838 348.744V346.944C96.3838 345.648 97.1518 345 98.6878 345H104.52C105.192 345 105.768 345.264 106.248 345.792C106.776 346.272 107.04 346.896 107.04 347.664V364.584C107.04 367.512 107.232 369.792 107.616 371.424C108.048 373.056 108.744 374.256 109.704 375.024C110.712 375.744 112.056 376.104 113.736 376.104C115.464 376.104 117.12 375.528 118.704 374.376C120.288 373.224 121.56 371.712 122.52 369.84C123.48 367.92 123.96 365.928 123.96 363.864V350.688H122.088C120.504 350.688 119.712 350.04 119.712 348.744V346.944C119.712 345.648 120.504 345 122.088 345H127.848C128.616 345 129.24 345.264 129.72 345.792C130.2 346.272 130.44 346.896 130.44 347.664V375.312H132.312ZM175.556 345C177.14 345 177.932 345.648 177.932 346.944V348.744C177.932 350.04 177.14 350.688 175.556 350.688H173.684V379.2C173.684 385.488 172.268 390.24 169.436 393.456C166.604 396.672 162.404 398.28 156.836 398.28C154.292 398.28 151.964 397.896 149.852 397.128C147.788 396.36 146.156 395.328 144.956 394.032C143.804 392.736 143.228 391.272 143.228 389.64C143.228 388.2 143.612 387.072 144.38 386.256C145.148 385.44 146.18 385.032 147.476 385.032C148.58 385.032 149.492 385.416 150.212 386.184C150.98 386.952 151.364 387.912 151.364 389.064C151.364 389.928 151.148 390.6 150.716 391.08C152.06 392.136 153.98 392.664 156.476 392.664C160.268 392.664 163.004 391.632 164.684 389.568C166.412 387.504 167.276 384.168 167.276 379.56V373.8C166.412 376.056 164.852 377.952 162.596 379.488C160.388 380.976 158.036 381.72 155.54 381.72C152.66 381.72 150.116 380.976 147.908 379.488C145.748 378 144.068 375.888 142.868 373.152C141.716 370.368 141.14 367.128 141.14 363.432C141.14 357.48 142.532 352.8 145.316 349.392C148.148 345.984 152.012 344.28 156.908 344.28C159.02 344.28 161.012 344.808 162.884 345.864C164.804 346.92 166.412 348.384 167.708 350.256L167.996 347.304C168.14 345.768 168.932 345 170.372 345H175.556ZM156.98 376.104C158.852 376.104 160.58 375.6 162.164 374.592C163.748 373.536 164.996 372.12 165.908 370.344C166.82 368.568 167.276 366.624 167.276 364.512V355.152C165.932 353.472 164.42 352.176 162.74 351.264C161.108 350.352 159.38 349.896 157.556 349.896C154.34 349.896 151.892 351.096 150.212 353.496C148.532 355.848 147.692 359.28 147.692 363.792C147.692 367.68 148.508 370.704 150.14 372.864C151.772 375.024 154.052 376.104 156.98 376.104ZM220.019 375.312C221.555 375.312 222.323 375.96 222.323 377.256V379.056C222.323 380.352 221.555 381 220.019 381H209.795C208.259 381 207.491 380.352 207.491 379.056V377.256C207.491 375.96 208.259 375.312 209.795 375.312H211.667V361.416C211.667 357.24 211.115 354.288 210.011 352.56C208.955 350.784 207.155 349.896 204.611 349.896C202.835 349.896 201.107 350.496 199.427 351.696C197.795 352.848 196.451 354.36 195.395 356.232C194.387 358.104 193.883 360.072 193.883 362.136V375.312H195.755C197.339 375.312 198.131 375.96 198.131 377.256V379.056C198.131 380.352 197.339 381 195.755 381H185.603C184.019 381 183.227 380.352 183.227 379.056V377.256C183.227 375.96 184.019 375.312 185.603 375.312H187.475V333.408H185.603C184.019 333.408 183.227 332.76 183.227 331.464V329.664C183.227 328.368 184.019 327.72 185.603 327.72H191.291C192.011 327.72 192.611 327.984 193.091 328.512C193.619 328.992 193.883 329.616 193.883 330.384V353.064C194.939 350.568 196.619 348.48 198.923 346.8C201.227 345.12 203.627 344.28 206.123 344.28C210.107 344.28 213.107 345.648 215.123 348.384C217.139 351.072 218.147 355.08 218.147 360.408V375.312H220.019ZM260.337 345C261.921 345 262.713 345.648 262.713 346.944V348.744C262.713 350.04 261.921 350.688 260.337 350.688H258.465L243.705 386.976C241.929 391.2 240.177 394.128 238.449 395.76C236.769 397.44 234.609 398.28 231.969 398.28C229.905 398.28 228.201 397.704 226.857 396.552C225.561 395.448 224.913 394.032 224.913 392.304C224.913 391.056 225.297 390.048 226.065 389.28C226.881 388.512 227.913 388.128 229.161 388.128C230.265 388.128 231.201 388.512 231.969 389.28C232.737 390.048 233.121 390.984 233.121 392.088C233.121 392.328 233.073 392.64 232.977 393.024C233.889 392.832 234.705 392.232 235.425 391.224C236.145 390.264 236.937 388.704 237.801 386.544L240.465 379.848L228.513 350.688H226.641C225.057 350.688 224.265 350.04 224.265 348.744V346.944C224.265 345.648 225.057 345 226.641 345H236.505C238.041 345 238.809 345.648 238.809 346.944V348.744C238.809 350.04 238.041 350.688 236.505 350.688H235.281L243.849 372.072L252.273 350.688H250.833C249.249 350.688 248.457 350.04 248.457 348.744V346.944C248.457 345.648 249.249 345 250.833 345H260.337ZM272.141 352.416C271.661 352.416 271.229 352.248 270.845 351.912C270.509 351.528 270.341 351.096 270.341 350.616C270.341 350.184 270.509 349.776 270.845 349.392C273.533 345.888 274.877 343.128 274.877 341.112C274.877 340.728 274.805 340.44 274.661 340.248C274.517 340.008 274.277 339.864 273.941 339.816C271.349 339.192 270.053 337.56 270.053 334.92C270.053 333.432 270.533 332.232 271.493 331.32C272.453 330.36 273.677 329.88 275.165 329.88C276.893 329.88 278.237 330.48 279.197 331.68C280.157 332.832 280.637 334.392 280.637 336.36C280.637 341.256 278.405 346.224 273.941 351.264C273.365 352.032 272.765 352.416 272.141 352.416ZM303.876 360.048C308.388 361.344 311.58 362.832 313.452 364.512C315.324 366.144 316.26 368.328 316.26 371.064C316.26 373.128 315.66 374.976 314.46 376.608C313.26 378.192 311.556 379.44 309.348 380.352C307.188 381.264 304.692 381.72 301.86 381.72C297.396 381.72 293.82 380.88 291.132 379.2C288.492 377.472 287.172 375.24 287.172 372.504C287.172 371.112 287.556 370.008 288.324 369.192C289.092 368.376 290.124 367.968 291.42 367.968C292.524 367.968 293.436 368.352 294.156 369.12C294.924 369.888 295.308 370.824 295.308 371.928C295.308 372.936 294.996 373.752 294.372 374.376C295.524 376.008 297.996 376.824 301.788 376.824C304.38 376.824 306.348 376.368 307.692 375.456C309.084 374.544 309.78 373.32 309.78 371.784C309.78 370.776 309.564 369.96 309.132 369.336C308.7 368.664 307.932 368.088 306.828 367.608C305.772 367.08 304.14 366.504 301.932 365.88C298.332 364.872 295.524 363.864 293.508 362.856C291.54 361.8 290.124 360.648 289.26 359.4C288.396 358.104 287.964 356.496 287.964 354.576C287.964 352.56 288.564 350.784 289.764 349.248C290.964 347.664 292.62 346.44 294.732 345.576C296.892 344.712 299.34 344.28 302.076 344.28C306.348 344.28 309.684 345.048 312.084 346.584C314.484 348.072 315.684 350.16 315.684 352.848C315.684 354.24 315.3 355.368 314.532 356.232C313.764 357.048 312.756 357.456 311.508 357.456C310.356 357.456 309.396 357.072 308.628 356.304C307.908 355.536 307.548 354.576 307.548 353.424C307.548 352.416 307.86 351.6 308.484 350.976C307.428 349.776 305.268 349.176 302.004 349.176C299.748 349.176 297.924 349.656 296.532 350.616C295.14 351.576 294.444 352.824 294.444 354.36C294.444 355.176 294.708 355.872 295.236 356.448C295.764 357.024 296.676 357.576 297.972 358.104C299.316 358.632 301.284 359.28 303.876 360.048ZM380.355 330.6C381.171 330.6 381.843 330.888 382.371 331.464C382.947 331.992 383.235 332.664 383.235 333.48V341.184C383.235 342.768 382.587 343.56 381.291 343.56H379.491C378.195 343.56 377.547 342.768 377.547 341.184V336.288H366.675V375.312H368.547C370.131 375.312 370.923 375.96 370.923 377.256V379.056C370.923 380.352 370.131 381 368.547 381H358.323C356.787 381 356.019 380.352 356.019 379.056V377.256C356.019 375.96 356.787 375.312 358.323 375.312H360.195V336.288H349.323V341.184C349.323 342.768 348.675 343.56 347.379 343.56H345.579C344.283 343.56 343.635 342.768 343.635 341.184V333.48C343.635 332.664 343.899 331.992 344.427 331.464C344.955 330.888 345.627 330.6 346.443 330.6H380.355ZM411.562 344.28C413.482 344.28 414.946 344.736 415.954 345.648C416.962 346.512 417.466 347.736 417.466 349.32C417.466 350.568 417.058 351.624 416.242 352.488C415.426 353.304 414.37 353.712 413.074 353.712C411.922 353.712 410.962 353.376 410.194 352.704C409.426 351.984 408.994 351.072 408.898 349.968C407.41 350.112 406.042 350.832 404.794 352.128C403.546 353.376 402.538 355.008 401.77 357.024C401.05 358.992 400.69 361.104 400.69 363.36V375.312H404.074C405.658 375.312 406.45 375.96 406.45 377.256V379.056C406.45 380.352 405.658 381 404.074 381H392.338C390.802 381 390.034 380.352 390.034 379.056V377.256C390.034 375.96 390.802 375.312 392.338 375.312H394.21V350.688H392.338C390.802 350.688 390.034 350.04 390.034 348.744V346.944C390.034 345.648 390.802 345 392.338 345H398.026C398.794 345 399.418 345.264 399.898 345.792C400.426 346.272 400.69 346.896 400.69 347.664V354C401.554 351.024 402.946 348.672 404.866 346.944C406.834 345.168 409.066 344.28 411.562 344.28ZM429.134 338.016C427.79 338.016 426.662 337.56 425.75 336.648C424.838 335.736 424.382 334.608 424.382 333.264C424.382 331.92 424.838 330.816 425.75 329.952C426.662 329.04 427.79 328.584 429.134 328.584C430.478 328.584 431.582 329.04 432.446 329.952C433.358 330.816 433.814 331.92 433.814 333.264C433.814 334.608 433.358 335.736 432.446 336.648C431.582 337.56 430.478 338.016 429.134 338.016ZM425.174 381C423.638 381 422.87 380.352 422.87 379.056V377.256C422.87 375.96 423.638 375.312 425.174 375.312H427.046V350.688H425.174C423.638 350.688 422.87 350.04 422.87 348.744V346.944C422.87 345.648 423.638 345 425.174 345H430.862C431.63 345 432.254 345.264 432.734 345.792C433.262 346.272 433.526 346.896 433.526 347.664V375.312H435.398C436.982 375.312 437.774 375.96 437.774 377.256V379.056C437.774 380.352 436.982 381 435.398 381H425.174ZM478.095 345C479.631 345 480.399 345.648 480.399 346.944V348.744C480.399 350.04 479.631 350.688 478.095 350.688H476.223L464.415 379.488C464.031 380.496 463.287 381 462.183 381H460.239C459.231 381 458.487 380.496 458.007 379.488L446.271 350.688H444.399C442.815 350.688 442.023 350.04 442.023 348.744V346.944C442.023 345.648 442.815 345 444.399 345H454.263C455.799 345 456.567 345.648 456.567 346.944V348.744C456.567 350.04 455.799 350.688 454.263 350.688H453.039L461.535 371.928L470.031 350.688H468.591C467.007 350.688 466.215 350.04 466.215 348.744V346.944C466.215 345.648 467.007 345 468.591 345H478.095ZM492.275 338.016C490.931 338.016 489.803 337.56 488.891 336.648C487.979 335.736 487.523 334.608 487.523 333.264C487.523 331.92 487.979 330.816 488.891 329.952C489.803 329.04 490.931 328.584 492.275 328.584C493.619 328.584 494.723 329.04 495.587 329.952C496.499 330.816 496.955 331.92 496.955 333.264C496.955 334.608 496.499 335.736 495.587 336.648C494.723 337.56 493.619 338.016 492.275 338.016ZM488.315 381C486.779 381 486.011 380.352 486.011 379.056V377.256C486.011 375.96 486.779 375.312 488.315 375.312H490.187V350.688H488.315C486.779 350.688 486.011 350.04 486.011 348.744V346.944C486.011 345.648 486.779 345 488.315 345H494.003C494.771 345 495.395 345.264 495.875 345.792C496.403 346.272 496.667 346.896 496.667 347.664V375.312H498.539C500.123 375.312 500.915 375.96 500.915 377.256V379.056C500.915 380.352 500.123 381 498.539 381H488.315ZM538.428 375.312C539.964 375.312 540.732 375.96 540.732 377.256V379.056C540.732 380.352 539.964 381 538.428 381H532.668C531.948 381 531.324 380.76 530.796 380.28C530.316 379.752 530.076 379.104 530.076 378.336V373.8C529.164 376.056 527.58 377.952 525.324 379.488C523.116 380.976 520.764 381.72 518.268 381.72C514.908 381.72 512.196 380.76 510.132 378.84C508.068 376.872 507.036 374.28 507.036 371.064C507.036 367.704 508.164 365.112 510.42 363.288C512.724 361.464 515.988 360.552 520.212 360.552C523.428 360.552 526.716 360.936 530.076 361.704V358.464C530.076 355.488 529.38 353.28 527.988 351.84C526.596 350.4 524.436 349.68 521.508 349.68C519.252 349.68 517.572 350.112 516.468 350.976C516.804 351.552 516.972 352.176 516.972 352.848C516.972 353.952 516.588 354.888 515.82 355.656C515.052 356.424 514.116 356.808 513.012 356.808C511.716 356.808 510.684 356.4 509.916 355.584C509.148 354.768 508.764 353.664 508.764 352.272C508.764 349.92 509.988 348 512.436 346.512C514.884 345.024 518.004 344.28 521.796 344.28C526.548 344.28 530.172 345.552 532.668 348.096C535.212 350.64 536.484 354.24 536.484 358.896V375.312H538.428ZM519.78 376.464C521.604 376.464 523.284 375.984 524.82 375.024C526.404 374.016 527.652 372.696 528.564 371.064C529.524 369.384 530.028 367.56 530.076 365.592C527.916 365.256 524.94 365.088 521.148 365.088C515.964 365.088 513.372 367.008 513.372 370.848C513.372 372.624 513.948 374.016 515.1 375.024C516.252 375.984 517.812 376.464 519.78 376.464ZM605.044 356.088C605.812 356.088 606.436 356.328 606.916 356.808C607.444 357.24 607.708 357.816 607.708 358.536V378.48C607.708 379.296 607.468 379.944 606.988 380.424C606.556 380.904 605.956 381.144 605.188 381.144H604.684C603.244 381.144 602.452 380.376 602.308 378.84L601.732 374.664C600.532 376.824 598.756 378.552 596.404 379.848C594.1 381.096 591.508 381.72 588.628 381.72C584.356 381.72 580.66 380.688 577.54 378.624C574.42 376.512 572.02 373.488 570.34 369.552C568.708 365.616 567.892 360.984 567.892 355.656C567.892 350.28 568.756 345.672 570.484 341.832C572.212 337.944 574.708 334.992 577.972 332.976C581.236 330.912 585.124 329.88 589.636 329.88C592.804 329.88 595.732 330.456 598.42 331.608C601.156 332.76 603.316 334.32 604.9 336.288C606.484 338.208 607.276 340.344 607.276 342.696C607.276 344.232 606.868 345.456 606.052 346.368C605.236 347.28 604.132 347.736 602.74 347.736C601.54 347.736 600.532 347.352 599.716 346.584C598.948 345.816 598.564 344.856 598.564 343.704C598.564 342.264 599.092 341.136 600.148 340.32C599.284 338.88 597.916 337.728 596.044 336.864C594.22 336 592.108 335.568 589.708 335.568C584.668 335.568 580.876 337.248 578.332 340.608C575.788 343.968 574.516 348.96 574.516 355.584C574.516 362.256 575.764 367.344 578.26 370.848C580.756 374.304 584.404 376.032 589.204 376.032C592.9 376.032 595.828 375.024 597.988 373.008C600.148 370.992 601.228 368.28 601.228 364.872V361.776H589.852C589.084 361.776 588.436 361.56 587.908 361.128C587.428 360.648 587.188 360.048 587.188 359.328V358.536C587.188 357.816 587.428 357.24 587.908 356.808C588.436 356.328 589.084 356.088 589.852 356.088H605.044ZM648.678 375.312C650.214 375.312 650.982 375.96 650.982 377.256V379.056C650.982 380.352 650.214 381 648.678 381H642.918C642.198 381 641.574 380.76 641.046 380.28C640.566 379.752 640.326 379.104 640.326 378.336V373.8C639.414 376.056 637.83 377.952 635.574 379.488C633.366 380.976 631.014 381.72 628.518 381.72C625.158 381.72 622.446 380.76 620.382 378.84C618.318 376.872 617.286 374.28 617.286 371.064C617.286 367.704 618.414 365.112 620.67 363.288C622.974 361.464 626.238 360.552 630.462 360.552C633.678 360.552 636.966 360.936 640.326 361.704V358.464C640.326 355.488 639.63 353.28 638.238 351.84C636.846 350.4 634.686 349.68 631.758 349.68C629.502 349.68 627.822 350.112 626.718 350.976C627.054 351.552 627.222 352.176 627.222 352.848C627.222 353.952 626.838 354.888 626.07 355.656C625.302 356.424 624.366 356.808 623.262 356.808C621.966 356.808 620.934 356.4 620.166 355.584C619.398 354.768 619.014 353.664 619.014 352.272C619.014 349.92 620.238 348 622.686 346.512C625.134 345.024 628.254 344.28 632.046 344.28C636.798 344.28 640.422 345.552 642.918 348.096C645.462 350.64 646.734 354.24 646.734 358.896V375.312H648.678ZM630.03 376.464C631.854 376.464 633.534 375.984 635.07 375.024C636.654 374.016 637.902 372.696 638.814 371.064C639.774 369.384 640.278 367.56 640.326 365.592C638.166 365.256 635.19 365.088 631.398 365.088C626.214 365.088 623.622 367.008 623.622 370.848C623.622 372.624 624.198 374.016 625.35 375.024C626.502 375.984 628.062 376.464 630.03 376.464ZM714.544 375.312C716.08 375.312 716.848 375.96 716.848 377.256V379.056C716.848 380.352 716.08 381 714.544 381H704.536C702.952 381 702.16 380.352 702.16 379.056V377.256C702.16 375.96 702.952 375.312 704.536 375.312H706.192V361.416C706.192 358.44 706 356.136 705.616 354.504C705.232 352.872 704.584 351.696 703.672 350.976C702.808 350.256 701.56 349.896 699.928 349.896C698.248 349.896 696.64 350.472 695.104 351.624C693.568 352.776 692.344 354.288 691.432 356.16C690.52 358.032 690.064 360.024 690.064 362.136V375.312H691.72C693.304 375.312 694.096 375.96 694.096 377.256V379.056C694.096 380.352 693.304 381 691.72 381H681.928C680.344 381 679.552 380.352 679.552 379.056V377.256C679.552 375.96 680.344 375.312 681.928 375.312H683.584V361.416C683.584 358.44 683.392 356.136 683.008 354.504C682.624 352.872 681.976 351.696 681.064 350.976C680.2 350.256 678.952 349.896 677.32 349.896C675.64 349.896 674.032 350.472 672.496 351.624C671.008 352.776 669.784 354.288 668.824 356.16C667.912 358.032 667.456 360.024 667.456 362.136V375.312H669.112C670.696 375.312 671.488 375.96 671.488 377.256V379.056C671.488 380.352 670.696 381 669.112 381H659.104C657.568 381 656.8 380.352 656.8 379.056V377.256C656.8 375.96 657.568 375.312 659.104 375.312H660.976V350.688H659.104C657.568 350.688 656.8 350.04 656.8 348.744V346.944C656.8 345.648 657.568 345 659.104 345H664.792C665.56 345 666.184 345.264 666.664 345.792C667.192 346.272 667.456 346.896 667.456 347.664V352.992C668.464 350.448 670.024 348.36 672.136 346.728C674.296 345.096 676.528 344.28 678.832 344.28C681.712 344.28 684.016 345.024 685.744 346.512C687.52 348 688.744 350.28 689.416 353.352C690.808 350.472 692.56 348.24 694.672 346.656C696.784 345.072 699.04 344.28 701.44 344.28C705.232 344.28 708.04 345.6 709.864 348.24C711.736 350.88 712.672 354.936 712.672 360.408V375.312H714.544ZM755.371 361.2C755.371 361.44 755.299 362.496 755.155 364.368H729.595C729.835 368.016 730.891 370.896 732.763 373.008C734.635 375.072 737.131 376.104 740.251 376.104C742.363 376.104 744.043 375.768 745.291 375.096C746.539 374.424 747.715 373.224 748.819 371.496C749.203 370.92 749.563 370.512 749.899 370.272C750.283 370.032 750.715 369.912 751.195 369.912C751.915 369.912 752.539 370.152 753.067 370.632C753.643 371.064 753.931 371.616 753.931 372.288C753.931 373.2 753.595 374.136 752.923 375.096C751.531 377.352 749.803 379.032 747.739 380.136C745.675 381.192 743.107 381.72 740.035 381.72C736.627 381.72 733.627 380.928 731.035 379.344C728.491 377.76 726.499 375.528 725.059 372.648C723.667 369.768 722.971 366.456 722.971 362.712C722.971 359.016 723.667 355.776 725.059 352.992C726.451 350.208 728.419 348.072 730.963 346.584C733.507 345.048 736.459 344.28 739.819 344.28C744.475 344.28 748.219 345.768 751.051 348.744C753.931 351.72 755.371 355.872 755.371 361.2ZM739.675 349.608C736.843 349.608 734.563 350.472 732.835 352.2C731.155 353.88 730.123 356.328 729.739 359.544H748.819C748.771 352.92 745.723 349.608 739.675 349.608Z" fill="url(#paint0_linear)"/>
<defs>
<linearGradient id="paint0_linear" x1="752" y1="399" x2="-8.40331e-06" y2="399" gradientUnits="userSpaceOnUse">
<stop stop-color="#1D2D44"/>
<stop offset="0.9998" stop-color="#3E5C76"/>
<stop offset="0.9999" stop-opacity="0"/>
<stop offset="1" stop-color="#3E5C76"/>
</linearGradient>
<clipPath id="clip0">
<rect width="326" height="324" fill="white" transform="translate(217)"/>
</clipPath>
</defs>
</svg>
