<svg width="999" height="324" viewBox="0 0 999 324" fill="none" xmlns="http://www.w3.org/2000/svg">
<g clip-path="url(#clip0)">
<path d="M894.122 87.0974C898.035 89.1615 901.859 91.2738 905.595 93.4341" stroke="#404B7C" stroke-miterlimit="10"/>
<path d="M821.316 74.3076C838.381 77.9958 857.012 84.3627 875.781 93.3484C889.375 99.8135 902.383 107.444 914.658 116.155" stroke="#404B7C" stroke-miterlimit="10"/>
<path d="M764.514 323.196H939.491" stroke="#0D1321" stroke-miterlimit="10"/>
<path d="M805.348 71.5779C810.476 72.2081 815.815 73.1187 821.316 74.3076" stroke="#404B7C" stroke-miterlimit="10"/>
<path d="M755.164 125.057C745.689 111.199 742.435 98.1057 747.303 87.9484C752.686 76.7139 767.098 70.9671 786.633 70.5438" stroke="#404B7C" stroke-miterlimit="10"/>
<path d="M954.673 156.01C962.57 168.715 965.02 180.628 960.516 190.026C956.552 198.297 947.696 203.594 935.504 205.981" stroke="#404B7C" stroke-miterlimit="10"/>
<path d="M914.658 116.155C922.572 121.765 930.053 127.962 937.036 134.693" stroke="#404B7C" stroke-miterlimit="10"/>
<path d="M749.918 54.303C765.644 50.9262 785.995 51.5264 808.755 56.0107" stroke="#404B7C" stroke-miterlimit="10"/>
<path d="M978.804 156.008C985.845 166.287 990.174 176.234 991.306 185.293" stroke="#404B7C" stroke-miterlimit="10"/>
<path d="M905.595 93.4341C912.657 97.5151 919.376 101.736 925.752 106.097" stroke="#404B7C" stroke-miterlimit="10"/>
<path d="M915.715 244.836C913.909 244.938 912.167 245.541 910.685 246.577C909.202 247.613 908.038 249.041 907.322 250.701C905.223 255.772 907.926 261.728 911.982 265.426C916.039 269.123 921.249 271.236 925.984 274.014C932.343 277.746 938.057 282.925 941.239 289.574C944.421 296.223 944.759 304.459 941.019 310.811C937.548 316.707 931.235 320.235 925.215 323.49" stroke="#0D1321" stroke-miterlimit="10"/>
<path d="M921.062 248.877C925.156 248.877 928.476 247.266 928.476 245.278C928.476 243.29 925.156 241.678 921.062 241.678C916.967 241.678 913.647 243.29 913.647 245.278C913.647 247.266 916.967 248.877 921.062 248.877Z" fill="#57B894"/>
<path d="M926.993 272.591C931.088 272.591 934.407 270.98 934.407 268.992C934.407 267.004 931.088 265.392 926.993 265.392C922.898 265.392 919.579 267.004 919.579 268.992C919.579 270.98 922.898 272.591 926.993 272.591Z" fill="#57B894"/>
<path d="M913.435 276.402C917.53 276.402 920.85 274.791 920.85 272.803C920.85 270.815 917.53 269.203 913.435 269.203C909.341 269.203 906.021 270.815 906.021 272.803C906.021 274.791 909.341 276.402 913.435 276.402Z" fill="#57B894"/>
<path d="M934.619 296.305C938.714 296.305 942.033 294.694 942.033 292.706C942.033 290.718 938.714 289.106 934.619 289.106C930.524 289.106 927.205 290.718 927.205 292.706C927.205 294.694 930.524 296.305 934.619 296.305Z" fill="#57B894"/>
<path d="M949.448 296.305C953.543 296.305 956.862 294.694 956.862 292.706C956.862 290.718 953.543 289.106 949.448 289.106C945.353 289.106 942.033 290.718 942.033 292.706C942.033 294.694 945.353 296.305 949.448 296.305Z" fill="#57B894"/>
<path d="M875.983 105.062H880.16C880.16 105.062 883.989 134.634 881.204 137.417C878.419 140.2 870.762 141.94 869.718 137.417C868.673 132.894 869.718 116.195 869.718 116.195L875.983 105.062Z" fill="#404B7C"/>
<path d="M848.659 109.063C862.692 109.063 874.069 95.7456 874.069 79.3177C874.069 62.8898 862.692 49.5723 848.659 49.5723C834.626 49.5723 823.25 62.8898 823.25 79.3177C823.25 95.7456 834.626 109.063 848.659 109.063Z" fill="#404B7C"/>
<path d="M842.916 84.8841C842.916 84.8841 844.309 96.3648 840.132 98.8001C835.955 101.235 845.005 115.151 845.005 115.151L855.795 117.935L863.104 107.845L861.712 97.4085C861.712 97.4085 853.358 89.0589 857.187 81.4051L842.916 84.8841Z" fill="#FFC1C7"/>
<path opacity="0.1" d="M842.916 84.8841C842.916 84.8841 844.309 96.3648 840.132 98.8001C835.955 101.235 845.005 115.151 845.005 115.151L855.795 117.935L863.104 107.845L861.712 97.4085C861.712 97.4085 853.358 89.0589 857.187 81.4051L842.916 84.8841Z" fill="#0D1321"/>
<path d="M827.253 209.509C827.253 209.509 823.076 247.43 827.253 256.475C831.43 265.521 842.568 290.917 842.568 290.917L839.087 298.223L848.485 296.136L852.314 288.83C852.314 288.83 847.789 271.087 847.093 264.825C846.397 258.563 841.176 247.082 841.176 247.082L850.922 205.682L827.253 209.509Z" fill="#FFC1C7"/>
<path d="M860.32 203.17C860.32 203.17 860.668 241.439 863.104 247.375L861.712 299.212L869.37 300.234C869.37 300.234 880.508 256.747 878.767 246.31C877.027 235.873 879.116 198.299 879.116 198.299L860.32 203.17Z" fill="#FFC1C7"/>
<path d="M848.659 89.5807C855.964 89.5807 861.886 83.6618 861.886 76.3605C861.886 69.0592 855.964 63.1403 848.659 63.1403C841.355 63.1403 835.433 69.0592 835.433 76.3605C835.433 83.6618 841.355 89.5807 848.659 89.5807Z" fill="#FFC1C7"/>
<path d="M893.734 208.041C893.734 208.041 884.337 214.303 880.508 209.78C876.679 205.257 829.69 212.563 823.772 211.172C817.855 209.78 826.905 187.514 826.905 176.034C826.905 167.444 830.024 154.377 831.594 148.338C832.123 146.306 832.474 145.071 832.474 145.071C832.474 145.071 836.045 134.916 835.377 130.696C835.332 130.376 835.244 130.063 835.116 129.767C835.06 129.643 834.991 129.525 834.911 129.415C833.243 127.192 828.464 110.98 826.609 104.019C826.306 102.988 826.057 101.943 825.861 100.887C825.861 99.8438 838.739 96.7127 841.959 96.5631C845.182 96.4135 846.049 100.887 846.049 100.887C847.093 101.583 851.966 113.76 851.966 113.76L856.491 102.279C856.491 102.279 856.143 99.8438 855.795 99.8438C855.447 99.8438 860.943 96.5596 860.943 96.5596C860.943 96.5596 866.585 100.54 869.718 99.8438C872.85 99.148 880.16 105.41 880.16 105.41C880.16 105.41 867.281 137.765 872.502 144.723C877.723 151.681 893.734 208.041 893.734 208.041Z" fill="#404B7C"/>
<path d="M851.27 287.438C851.27 287.438 845.353 293.353 845.353 294.048L840.48 291.961C840.48 291.961 838.391 299.615 838.043 300.658C837.695 301.702 831.778 311.095 825.861 315.27C819.944 319.445 825.861 324.664 831.082 323.62C836.303 322.576 849.53 310.748 849.53 310.748C849.53 310.748 858.579 310.748 861.712 303.79C861.712 303.79 853.358 286.743 851.27 287.438Z" fill="#404B7C"/>
<path d="M868.673 297.473C868.673 297.473 859.732 290.979 859.156 297.009C858.579 303.039 858.579 316.259 858.579 316.259C858.579 316.259 855.795 324.957 864.497 323.913C873.198 322.869 873.895 320.434 873.895 320.434L869.718 303.735V296.429L868.673 297.473Z" fill="#404B7C"/>
<path opacity="0.1" d="M834.911 129.415C833.243 127.192 828.464 110.98 826.609 104.019H828.297C828.297 104.019 832.537 120.603 835.116 129.767C835.06 129.643 834.991 129.525 834.911 129.415Z" fill="#0D1321"/>
<path opacity="0.1" d="M857.883 152.377C857.883 152.377 853.01 152.724 835.259 149.246C834.022 149.008 832.798 148.705 831.594 148.337C832.123 146.306 832.474 145.071 832.474 145.071C832.474 145.071 836.045 134.916 835.377 130.696C836.209 133.618 836.829 135.59 836.999 135.677C837.695 136.025 859.972 139.852 863.104 141.244C866.237 142.635 857.883 152.377 857.883 152.377Z" fill="#0D1321"/>
<path opacity="0.1" d="M864.148 106.844C864.148 106.844 873.749 105.66 874.344 107.216C874.939 108.772 877.375 123.808 878.419 125.736C879.464 127.664 879.812 139.616 875.635 140.002C871.458 140.387 865.889 136.146 866.933 132.676C867.977 129.206 864.148 106.844 864.148 106.844Z" fill="#0D1321"/>
<path d="M859.276 138.809C859.276 138.809 873.894 140.548 876.331 138.809C878.767 137.069 888.861 137.069 886.773 141.94C884.685 146.81 866.585 147.158 866.585 147.158H856.143L859.276 138.809Z" fill="#FFC1C7"/>
<path d="M828.297 101.583H825.861C825.861 101.583 820.988 102.627 821.684 117.935C822.38 133.242 817.507 143.331 835.259 146.81C853.01 150.289 857.883 149.941 857.883 149.941C857.883 149.941 866.237 140.2 863.104 138.809C859.972 137.417 837.695 133.59 836.999 133.242C836.303 132.894 828.297 101.583 828.297 101.583Z" fill="#404B7C"/>
<path d="M874.076 108.45C874.076 108.45 867.977 85.5799 863.104 85.5799C858.231 85.5799 852.662 86.6236 856.839 91.1463C861.016 95.669 866.237 100.54 866.585 102.975C866.933 105.41 868.325 108.889 868.325 108.889L874.076 108.45Z" fill="#FFC1C7"/>
<path d="M865.541 106.844C865.541 106.844 875.141 105.66 875.736 107.216C876.331 108.772 878.767 123.808 879.812 125.736C880.856 127.664 881.204 139.616 877.027 140.002C872.85 140.387 867.281 136.146 868.325 132.676C869.37 129.206 865.541 106.844 865.541 106.844Z" fill="#404B7C"/>
<path d="M845.179 76.3605C852.099 76.3605 857.709 70.7532 857.709 63.8361C857.709 56.9191 852.099 51.3118 845.179 51.3118C838.258 51.3118 832.648 56.9191 832.648 63.8361C832.648 70.7532 838.258 76.3605 845.179 76.3605Z" fill="#404B7C"/>
<path d="M895.672 205.417C876.227 202.214 854.228 195.25 832.038 184.626C806.771 172.53 785.361 157.653 770.105 142.618" stroke="#404B7C" stroke-miterlimit="10"/>
<path d="M816.831 191.17C799.435 182.161 783.685 172.146 770.104 161.719" stroke="#404B7C" stroke-miterlimit="10"/>
<path d="M693.856 50.3785C705.374 50.3785 714.712 41.0455 714.712 29.5327C714.712 18.0198 705.374 8.68684 693.856 8.68684C682.338 8.68684 673 18.0198 673 29.5327C673 41.0455 682.338 50.3785 693.856 50.3785Z" fill="#404B7C"/>
<path d="M698.748 41.8857C710.267 41.8857 719.604 32.5527 719.604 21.0399C719.604 9.52708 710.267 0.194092 698.748 0.194092C687.23 0.194092 677.892 9.52708 677.892 21.0399C677.892 32.5527 687.23 41.8857 698.748 41.8857Z" stroke="#404B7C" stroke-miterlimit="10"/>
<path d="M983.825 116.956C990.527 116.956 995.959 111.526 995.959 104.828C995.959 98.1296 990.527 92.6995 983.825 92.6995C977.123 92.6995 971.691 98.1296 971.691 104.828C971.691 111.526 977.123 116.956 983.825 116.956Z" fill="#1D2D44"/>
<path d="M986.671 112.015C993.373 112.015 998.806 106.585 998.806 99.8867C998.806 93.1884 993.373 87.7582 986.671 87.7582C979.97 87.7582 974.537 93.1884 974.537 99.8867C974.537 106.585 979.97 112.015 986.671 112.015Z" stroke="#404B7C" stroke-miterlimit="10"/>
<path d="M762.468 248.69C772.102 248.69 779.911 240.884 779.911 231.255C779.911 221.626 772.102 213.821 762.468 213.821C752.834 213.821 745.025 221.626 745.025 231.255C745.025 240.884 752.834 248.69 762.468 248.69Z" fill="#1D2D44"/>
<path d="M766.56 241.587C776.193 241.587 784.003 233.781 784.003 224.152C784.003 214.523 776.193 206.717 766.56 206.717C756.926 206.717 749.116 214.523 749.116 224.152C749.116 233.781 756.926 241.587 766.56 241.587Z" stroke="#404B7C" stroke-miterlimit="10"/>
</g>
<path d="M23.328 136.6C31.008 136.6 36.912 138.688 41.04 142.864C45.216 146.992 47.304 152.92 47.304 160.648C47.304 165.976 46.32 170.632 44.352 174.616C42.384 178.552 39.576 181.6 35.928 183.76C32.28 185.92 28.008 187 23.112 187H6.84C5.256 187 4.464 186.352 4.464 185.056V183.256C4.464 181.96 5.256 181.312 6.84 181.312H8.712V142.288H6.84C5.256 142.288 4.464 141.64 4.464 140.344V138.544C4.464 137.248 5.256 136.6 6.84 136.6H23.328ZM22.464 181.312C28.32 181.312 32.808 179.536 35.928 175.984C39.096 172.432 40.68 167.392 40.68 160.864C40.68 154.576 39.216 149.92 36.288 146.896C33.36 143.824 28.896 142.288 22.896 142.288H15.192V181.312H22.464ZM72.9799 187.72C69.5719 187.72 66.5719 186.976 63.9799 185.488C61.3879 183.952 59.3959 181.792 58.0039 179.008C56.6119 176.224 55.9159 173.008 55.9159 169.36C55.9159 165.568 56.6359 162.232 58.0759 159.352C59.5159 156.472 61.5319 154.24 64.1239 152.656C66.7159 151.072 69.7399 150.28 73.1959 150.28C76.6039 150.28 79.6039 151.048 82.1959 152.584C84.7879 154.072 86.7799 156.208 88.1719 158.992C89.5639 161.776 90.2599 164.992 90.2599 168.64C90.2599 172.432 89.5399 175.768 88.0999 178.648C86.6599 181.528 84.6439 183.76 82.0519 185.344C79.4599 186.928 76.4359 187.72 72.9799 187.72ZM72.9799 182.104C76.3879 182.104 79.0279 180.928 80.8999 178.576C82.7719 176.224 83.7079 172.936 83.7079 168.712C83.7079 164.584 82.7959 161.416 80.9719 159.208C79.1479 157 76.5559 155.896 73.1959 155.896C69.8359 155.896 67.1959 157.096 65.2759 159.496C63.4039 161.848 62.4679 165.112 62.4679 169.288C62.4679 173.368 63.3799 176.536 65.2039 178.792C67.0279 181 69.6199 182.104 72.9799 182.104ZM132.312 181.312C133.848 181.312 134.616 181.96 134.616 183.256V185.056C134.616 186.352 133.848 187 132.312 187H126.624C125.856 187 125.208 186.76 124.68 186.28C124.2 185.752 123.96 185.104 123.96 184.336V178.936C122.904 181.48 121.272 183.592 119.064 185.272C116.904 186.904 114.6 187.72 112.152 187.72C108.216 187.72 105.288 186.4 103.368 183.76C101.496 181.12 100.56 177.064 100.56 171.592V156.688H98.6878C97.1518 156.688 96.3838 156.04 96.3838 154.744V152.944C96.3838 151.648 97.1518 151 98.6878 151H104.52C105.192 151 105.768 151.264 106.248 151.792C106.776 152.272 107.04 152.896 107.04 153.664V170.584C107.04 173.512 107.232 175.792 107.616 177.424C108.048 179.056 108.744 180.256 109.704 181.024C110.712 181.744 112.056 182.104 113.736 182.104C115.464 182.104 117.12 181.528 118.704 180.376C120.288 179.224 121.56 177.712 122.52 175.84C123.48 173.92 123.96 171.928 123.96 169.864V156.688H122.088C120.504 156.688 119.712 156.04 119.712 154.744V152.944C119.712 151.648 120.504 151 122.088 151H127.848C128.616 151 129.24 151.264 129.72 151.792C130.2 152.272 130.44 152.896 130.44 153.664V181.312H132.312ZM175.556 151C177.14 151 177.932 151.648 177.932 152.944V154.744C177.932 156.04 177.14 156.688 175.556 156.688H173.684V185.2C173.684 191.488 172.268 196.24 169.436 199.456C166.604 202.672 162.404 204.28 156.836 204.28C154.292 204.28 151.964 203.896 149.852 203.128C147.788 202.36 146.156 201.328 144.956 200.032C143.804 198.736 143.228 197.272 143.228 195.64C143.228 194.2 143.612 193.072 144.38 192.256C145.148 191.44 146.18 191.032 147.476 191.032C148.58 191.032 149.492 191.416 150.212 192.184C150.98 192.952 151.364 193.912 151.364 195.064C151.364 195.928 151.148 196.6 150.716 197.08C152.06 198.136 153.98 198.664 156.476 198.664C160.268 198.664 163.004 197.632 164.684 195.568C166.412 193.504 167.276 190.168 167.276 185.56V179.8C166.412 182.056 164.852 183.952 162.596 185.488C160.388 186.976 158.036 187.72 155.54 187.72C152.66 187.72 150.116 186.976 147.908 185.488C145.748 184 144.068 181.888 142.868 179.152C141.716 176.368 141.14 173.128 141.14 169.432C141.14 163.48 142.532 158.8 145.316 155.392C148.148 151.984 152.012 150.28 156.908 150.28C159.02 150.28 161.012 150.808 162.884 151.864C164.804 152.92 166.412 154.384 167.708 156.256L167.996 153.304C168.14 151.768 168.932 151 170.372 151H175.556ZM156.98 182.104C158.852 182.104 160.58 181.6 162.164 180.592C163.748 179.536 164.996 178.12 165.908 176.344C166.82 174.568 167.276 172.624 167.276 170.512V161.152C165.932 159.472 164.42 158.176 162.74 157.264C161.108 156.352 159.38 155.896 157.556 155.896C154.34 155.896 151.892 157.096 150.212 159.496C148.532 161.848 147.692 165.28 147.692 169.792C147.692 173.68 148.508 176.704 150.14 178.864C151.772 181.024 154.052 182.104 156.98 182.104ZM220.019 181.312C221.555 181.312 222.323 181.96 222.323 183.256V185.056C222.323 186.352 221.555 187 220.019 187H209.795C208.259 187 207.491 186.352 207.491 185.056V183.256C207.491 181.96 208.259 181.312 209.795 181.312H211.667V167.416C211.667 163.24 211.115 160.288 210.011 158.56C208.955 156.784 207.155 155.896 204.611 155.896C202.835 155.896 201.107 156.496 199.427 157.696C197.795 158.848 196.451 160.36 195.395 162.232C194.387 164.104 193.883 166.072 193.883 168.136V181.312H195.755C197.339 181.312 198.131 181.96 198.131 183.256V185.056C198.131 186.352 197.339 187 195.755 187H185.603C184.019 187 183.227 186.352 183.227 185.056V183.256C183.227 181.96 184.019 181.312 185.603 181.312H187.475V139.408H185.603C184.019 139.408 183.227 138.76 183.227 137.464V135.664C183.227 134.368 184.019 133.72 185.603 133.72H191.291C192.011 133.72 192.611 133.984 193.091 134.512C193.619 134.992 193.883 135.616 193.883 136.384V159.064C194.939 156.568 196.619 154.48 198.923 152.8C201.227 151.12 203.627 150.28 206.123 150.28C210.107 150.28 213.107 151.648 215.123 154.384C217.139 157.072 218.147 161.08 218.147 166.408V181.312H220.019ZM260.337 151C261.921 151 262.713 151.648 262.713 152.944V154.744C262.713 156.04 261.921 156.688 260.337 156.688H258.465L243.705 192.976C241.929 197.2 240.177 200.128 238.449 201.76C236.769 203.44 234.609 204.28 231.969 204.28C229.905 204.28 228.201 203.704 226.857 202.552C225.561 201.448 224.913 200.032 224.913 198.304C224.913 197.056 225.297 196.048 226.065 195.28C226.881 194.512 227.913 194.128 229.161 194.128C230.265 194.128 231.201 194.512 231.969 195.28C232.737 196.048 233.121 196.984 233.121 198.088C233.121 198.328 233.073 198.64 232.977 199.024C233.889 198.832 234.705 198.232 235.425 197.224C236.145 196.264 236.937 194.704 237.801 192.544L240.465 185.848L228.513 156.688H226.641C225.057 156.688 224.265 156.04 224.265 154.744V152.944C224.265 151.648 225.057 151 226.641 151H236.505C238.041 151 238.809 151.648 238.809 152.944V154.744C238.809 156.04 238.041 156.688 236.505 156.688H235.281L243.849 178.072L252.273 156.688H250.833C249.249 156.688 248.457 156.04 248.457 154.744V152.944C248.457 151.648 249.249 151 250.833 151H260.337ZM272.141 158.416C271.661 158.416 271.229 158.248 270.845 157.912C270.509 157.528 270.341 157.096 270.341 156.616C270.341 156.184 270.509 155.776 270.845 155.392C273.533 151.888 274.877 149.128 274.877 147.112C274.877 146.728 274.805 146.44 274.661 146.248C274.517 146.008 274.277 145.864 273.941 145.816C271.349 145.192 270.053 143.56 270.053 140.92C270.053 139.432 270.533 138.232 271.493 137.32C272.453 136.36 273.677 135.88 275.165 135.88C276.893 135.88 278.237 136.48 279.197 137.68C280.157 138.832 280.637 140.392 280.637 142.36C280.637 147.256 278.405 152.224 273.941 157.264C273.365 158.032 272.765 158.416 272.141 158.416ZM303.876 166.048C308.388 167.344 311.58 168.832 313.452 170.512C315.324 172.144 316.26 174.328 316.26 177.064C316.26 179.128 315.66 180.976 314.46 182.608C313.26 184.192 311.556 185.44 309.348 186.352C307.188 187.264 304.692 187.72 301.86 187.72C297.396 187.72 293.82 186.88 291.132 185.2C288.492 183.472 287.172 181.24 287.172 178.504C287.172 177.112 287.556 176.008 288.324 175.192C289.092 174.376 290.124 173.968 291.42 173.968C292.524 173.968 293.436 174.352 294.156 175.12C294.924 175.888 295.308 176.824 295.308 177.928C295.308 178.936 294.996 179.752 294.372 180.376C295.524 182.008 297.996 182.824 301.788 182.824C304.38 182.824 306.348 182.368 307.692 181.456C309.084 180.544 309.78 179.32 309.78 177.784C309.78 176.776 309.564 175.96 309.132 175.336C308.7 174.664 307.932 174.088 306.828 173.608C305.772 173.08 304.14 172.504 301.932 171.88C298.332 170.872 295.524 169.864 293.508 168.856C291.54 167.8 290.124 166.648 289.26 165.4C288.396 164.104 287.964 162.496 287.964 160.576C287.964 158.56 288.564 156.784 289.764 155.248C290.964 153.664 292.62 152.44 294.732 151.576C296.892 150.712 299.34 150.28 302.076 150.28C306.348 150.28 309.684 151.048 312.084 152.584C314.484 154.072 315.684 156.16 315.684 158.848C315.684 160.24 315.3 161.368 314.532 162.232C313.764 163.048 312.756 163.456 311.508 163.456C310.356 163.456 309.396 163.072 308.628 162.304C307.908 161.536 307.548 160.576 307.548 159.424C307.548 158.416 307.86 157.6 308.484 156.976C307.428 155.776 305.268 155.176 302.004 155.176C299.748 155.176 297.924 155.656 296.532 156.616C295.14 157.576 294.444 158.824 294.444 160.36C294.444 161.176 294.708 161.872 295.236 162.448C295.764 163.024 296.676 163.576 297.972 164.104C299.316 164.632 301.284 165.28 303.876 166.048ZM380.355 136.6C381.171 136.6 381.843 136.888 382.371 137.464C382.947 137.992 383.235 138.664 383.235 139.48V147.184C383.235 148.768 382.587 149.56 381.291 149.56H379.491C378.195 149.56 377.547 148.768 377.547 147.184V142.288H366.675V181.312H368.547C370.131 181.312 370.923 181.96 370.923 183.256V185.056C370.923 186.352 370.131 187 368.547 187H358.323C356.787 187 356.019 186.352 356.019 185.056V183.256C356.019 181.96 356.787 181.312 358.323 181.312H360.195V142.288H349.323V147.184C349.323 148.768 348.675 149.56 347.379 149.56H345.579C344.283 149.56 343.635 148.768 343.635 147.184V139.48C343.635 138.664 343.899 137.992 344.427 137.464C344.955 136.888 345.627 136.6 346.443 136.6H380.355ZM411.562 150.28C413.482 150.28 414.946 150.736 415.954 151.648C416.962 152.512 417.466 153.736 417.466 155.32C417.466 156.568 417.058 157.624 416.242 158.488C415.426 159.304 414.37 159.712 413.074 159.712C411.922 159.712 410.962 159.376 410.194 158.704C409.426 157.984 408.994 157.072 408.898 155.968C407.41 156.112 406.042 156.832 404.794 158.128C403.546 159.376 402.538 161.008 401.77 163.024C401.05 164.992 400.69 167.104 400.69 169.36V181.312H404.074C405.658 181.312 406.45 181.96 406.45 183.256V185.056C406.45 186.352 405.658 187 404.074 187H392.338C390.802 187 390.034 186.352 390.034 185.056V183.256C390.034 181.96 390.802 181.312 392.338 181.312H394.21V156.688H392.338C390.802 156.688 390.034 156.04 390.034 154.744V152.944C390.034 151.648 390.802 151 392.338 151H398.026C398.794 151 399.418 151.264 399.898 151.792C400.426 152.272 400.69 152.896 400.69 153.664V160C401.554 157.024 402.946 154.672 404.866 152.944C406.834 151.168 409.066 150.28 411.562 150.28ZM429.134 144.016C427.79 144.016 426.662 143.56 425.75 142.648C424.838 141.736 424.382 140.608 424.382 139.264C424.382 137.92 424.838 136.816 425.75 135.952C426.662 135.04 427.79 134.584 429.134 134.584C430.478 134.584 431.582 135.04 432.446 135.952C433.358 136.816 433.814 137.92 433.814 139.264C433.814 140.608 433.358 141.736 432.446 142.648C431.582 143.56 430.478 144.016 429.134 144.016ZM425.174 187C423.638 187 422.87 186.352 422.87 185.056V183.256C422.87 181.96 423.638 181.312 425.174 181.312H427.046V156.688H425.174C423.638 156.688 422.87 156.04 422.87 154.744V152.944C422.87 151.648 423.638 151 425.174 151H430.862C431.63 151 432.254 151.264 432.734 151.792C433.262 152.272 433.526 152.896 433.526 153.664V181.312H435.398C436.982 181.312 437.774 181.96 437.774 183.256V185.056C437.774 186.352 436.982 187 435.398 187H425.174ZM478.095 151C479.631 151 480.399 151.648 480.399 152.944V154.744C480.399 156.04 479.631 156.688 478.095 156.688H476.223L464.415 185.488C464.031 186.496 463.287 187 462.183 187H460.239C459.231 187 458.487 186.496 458.007 185.488L446.271 156.688H444.399C442.815 156.688 442.023 156.04 442.023 154.744V152.944C442.023 151.648 442.815 151 444.399 151H454.263C455.799 151 456.567 151.648 456.567 152.944V154.744C456.567 156.04 455.799 156.688 454.263 156.688H453.039L461.535 177.928L470.031 156.688H468.591C467.007 156.688 466.215 156.04 466.215 154.744V152.944C466.215 151.648 467.007 151 468.591 151H478.095ZM492.275 144.016C490.931 144.016 489.803 143.56 488.891 142.648C487.979 141.736 487.523 140.608 487.523 139.264C487.523 137.92 487.979 136.816 488.891 135.952C489.803 135.04 490.931 134.584 492.275 134.584C493.619 134.584 494.723 135.04 495.587 135.952C496.499 136.816 496.955 137.92 496.955 139.264C496.955 140.608 496.499 141.736 495.587 142.648C494.723 143.56 493.619 144.016 492.275 144.016ZM488.315 187C486.779 187 486.011 186.352 486.011 185.056V183.256C486.011 181.96 486.779 181.312 488.315 181.312H490.187V156.688H488.315C486.779 156.688 486.011 156.04 486.011 154.744V152.944C486.011 151.648 486.779 151 488.315 151H494.003C494.771 151 495.395 151.264 495.875 151.792C496.403 152.272 496.667 152.896 496.667 153.664V181.312H498.539C500.123 181.312 500.915 181.96 500.915 183.256V185.056C500.915 186.352 500.123 187 498.539 187H488.315ZM538.428 181.312C539.964 181.312 540.732 181.96 540.732 183.256V185.056C540.732 186.352 539.964 187 538.428 187H532.668C531.948 187 531.324 186.76 530.796 186.28C530.316 185.752 530.076 185.104 530.076 184.336V179.8C529.164 182.056 527.58 183.952 525.324 185.488C523.116 186.976 520.764 187.72 518.268 187.72C514.908 187.72 512.196 186.76 510.132 184.84C508.068 182.872 507.036 180.28 507.036 177.064C507.036 173.704 508.164 171.112 510.42 169.288C512.724 167.464 515.988 166.552 520.212 166.552C523.428 166.552 526.716 166.936 530.076 167.704V164.464C530.076 161.488 529.38 159.28 527.988 157.84C526.596 156.4 524.436 155.68 521.508 155.68C519.252 155.68 517.572 156.112 516.468 156.976C516.804 157.552 516.972 158.176 516.972 158.848C516.972 159.952 516.588 160.888 515.82 161.656C515.052 162.424 514.116 162.808 513.012 162.808C511.716 162.808 510.684 162.4 509.916 161.584C509.148 160.768 508.764 159.664 508.764 158.272C508.764 155.92 509.988 154 512.436 152.512C514.884 151.024 518.004 150.28 521.796 150.28C526.548 150.28 530.172 151.552 532.668 154.096C535.212 156.64 536.484 160.24 536.484 164.896V181.312H538.428ZM519.78 182.464C521.604 182.464 523.284 181.984 524.82 181.024C526.404 180.016 527.652 178.696 528.564 177.064C529.524 175.384 530.028 173.56 530.076 171.592C527.916 171.256 524.94 171.088 521.148 171.088C515.964 171.088 513.372 173.008 513.372 176.848C513.372 178.624 513.948 180.016 515.1 181.024C516.252 181.984 517.812 182.464 519.78 182.464ZM605.044 162.088C605.812 162.088 606.436 162.328 606.916 162.808C607.444 163.24 607.708 163.816 607.708 164.536V184.48C607.708 185.296 607.468 185.944 606.988 186.424C606.556 186.904 605.956 187.144 605.188 187.144H604.684C603.244 187.144 602.452 186.376 602.308 184.84L601.732 180.664C600.532 182.824 598.756 184.552 596.404 185.848C594.1 187.096 591.508 187.72 588.628 187.72C584.356 187.72 580.66 186.688 577.54 184.624C574.42 182.512 572.02 179.488 570.34 175.552C568.708 171.616 567.892 166.984 567.892 161.656C567.892 156.28 568.756 151.672 570.484 147.832C572.212 143.944 574.708 140.992 577.972 138.976C581.236 136.912 585.124 135.88 589.636 135.88C592.804 135.88 595.732 136.456 598.42 137.608C601.156 138.76 603.316 140.32 604.9 142.288C606.484 144.208 607.276 146.344 607.276 148.696C607.276 150.232 606.868 151.456 606.052 152.368C605.236 153.28 604.132 153.736 602.74 153.736C601.54 153.736 600.532 153.352 599.716 152.584C598.948 151.816 598.564 150.856 598.564 149.704C598.564 148.264 599.092 147.136 600.148 146.32C599.284 144.88 597.916 143.728 596.044 142.864C594.22 142 592.108 141.568 589.708 141.568C584.668 141.568 580.876 143.248 578.332 146.608C575.788 149.968 574.516 154.96 574.516 161.584C574.516 168.256 575.764 173.344 578.26 176.848C580.756 180.304 584.404 182.032 589.204 182.032C592.9 182.032 595.828 181.024 597.988 179.008C600.148 176.992 601.228 174.28 601.228 170.872V167.776H589.852C589.084 167.776 588.436 167.56 587.908 167.128C587.428 166.648 587.188 166.048 587.188 165.328V164.536C587.188 163.816 587.428 163.24 587.908 162.808C588.436 162.328 589.084 162.088 589.852 162.088H605.044ZM648.678 181.312C650.214 181.312 650.982 181.96 650.982 183.256V185.056C650.982 186.352 650.214 187 648.678 187H642.918C642.198 187 641.574 186.76 641.046 186.28C640.566 185.752 640.326 185.104 640.326 184.336V179.8C639.414 182.056 637.83 183.952 635.574 185.488C633.366 186.976 631.014 187.72 628.518 187.72C625.158 187.72 622.446 186.76 620.382 184.84C618.318 182.872 617.286 180.28 617.286 177.064C617.286 173.704 618.414 171.112 620.67 169.288C622.974 167.464 626.238 166.552 630.462 166.552C633.678 166.552 636.966 166.936 640.326 167.704V164.464C640.326 161.488 639.63 159.28 638.238 157.84C636.846 156.4 634.686 155.68 631.758 155.68C629.502 155.68 627.822 156.112 626.718 156.976C627.054 157.552 627.222 158.176 627.222 158.848C627.222 159.952 626.838 160.888 626.07 161.656C625.302 162.424 624.366 162.808 623.262 162.808C621.966 162.808 620.934 162.4 620.166 161.584C619.398 160.768 619.014 159.664 619.014 158.272C619.014 155.92 620.238 154 622.686 152.512C625.134 151.024 628.254 150.28 632.046 150.28C636.798 150.28 640.422 151.552 642.918 154.096C645.462 156.64 646.734 160.24 646.734 164.896V181.312H648.678ZM630.03 182.464C631.854 182.464 633.534 181.984 635.07 181.024C636.654 180.016 637.902 178.696 638.814 177.064C639.774 175.384 640.278 173.56 640.326 171.592C638.166 171.256 635.19 171.088 631.398 171.088C626.214 171.088 623.622 173.008 623.622 176.848C623.622 178.624 624.198 180.016 625.35 181.024C626.502 181.984 628.062 182.464 630.03 182.464ZM714.544 181.312C716.08 181.312 716.848 181.96 716.848 183.256V185.056C716.848 186.352 716.08 187 714.544 187H704.536C702.952 187 702.16 186.352 702.16 185.056V183.256C702.16 181.96 702.952 181.312 704.536 181.312H706.192V167.416C706.192 164.44 706 162.136 705.616 160.504C705.232 158.872 704.584 157.696 703.672 156.976C702.808 156.256 701.56 155.896 699.928 155.896C698.248 155.896 696.64 156.472 695.104 157.624C693.568 158.776 692.344 160.288 691.432 162.16C690.52 164.032 690.064 166.024 690.064 168.136V181.312H691.72C693.304 181.312 694.096 181.96 694.096 183.256V185.056C694.096 186.352 693.304 187 691.72 187H681.928C680.344 187 679.552 186.352 679.552 185.056V183.256C679.552 181.96 680.344 181.312 681.928 181.312H683.584V167.416C683.584 164.44 683.392 162.136 683.008 160.504C682.624 158.872 681.976 157.696 681.064 156.976C680.2 156.256 678.952 155.896 677.32 155.896C675.64 155.896 674.032 156.472 672.496 157.624C671.008 158.776 669.784 160.288 668.824 162.16C667.912 164.032 667.456 166.024 667.456 168.136V181.312H669.112C670.696 181.312 671.488 181.96 671.488 183.256V185.056C671.488 186.352 670.696 187 669.112 187H659.104C657.568 187 656.8 186.352 656.8 185.056V183.256C656.8 181.96 657.568 181.312 659.104 181.312H660.976V156.688H659.104C657.568 156.688 656.8 156.04 656.8 154.744V152.944C656.8 151.648 657.568 151 659.104 151H664.792C665.56 151 666.184 151.264 666.664 151.792C667.192 152.272 667.456 152.896 667.456 153.664V158.992C668.464 156.448 670.024 154.36 672.136 152.728C674.296 151.096 676.528 150.28 678.832 150.28C681.712 150.28 684.016 151.024 685.744 152.512C687.52 154 688.744 156.28 689.416 159.352C690.808 156.472 692.56 154.24 694.672 152.656C696.784 151.072 699.04 150.28 701.44 150.28C705.232 150.28 708.04 151.6 709.864 154.24C711.736 156.88 712.672 160.936 712.672 166.408V181.312H714.544ZM755.371 167.2C755.371 167.44 755.299 168.496 755.155 170.368H729.595C729.835 174.016 730.891 176.896 732.763 179.008C734.635 181.072 737.131 182.104 740.251 182.104C742.363 182.104 744.043 181.768 745.291 181.096C746.539 180.424 747.715 179.224 748.819 177.496C749.203 176.92 749.563 176.512 749.899 176.272C750.283 176.032 750.715 175.912 751.195 175.912C751.915 175.912 752.539 176.152 753.067 176.632C753.643 177.064 753.931 177.616 753.931 178.288C753.931 179.2 753.595 180.136 752.923 181.096C751.531 183.352 749.803 185.032 747.739 186.136C745.675 187.192 743.107 187.72 740.035 187.72C736.627 187.72 733.627 186.928 731.035 185.344C728.491 183.76 726.499 181.528 725.059 178.648C723.667 175.768 722.971 172.456 722.971 168.712C722.971 165.016 723.667 161.776 725.059 158.992C726.451 156.208 728.419 154.072 730.963 152.584C733.507 151.048 736.459 150.28 739.819 150.28C744.475 150.28 748.219 151.768 751.051 154.744C753.931 157.72 755.371 161.872 755.371 167.2ZM739.675 155.608C736.843 155.608 734.563 156.472 732.835 158.2C731.155 159.88 730.123 162.328 729.739 165.544H748.819C748.771 158.92 745.723 155.608 739.675 155.608Z" fill="url(#paint0_linear)"/>
<defs>
<linearGradient id="paint0_linear" x1="752" y1="205" x2="-8.40331e-06" y2="205" gradientUnits="userSpaceOnUse">
<stop stop-color="#1D2D44"/>
<stop offset="0.9998" stop-color="#3E5C76"/>
<stop offset="0.9999" stop-opacity="0"/>
<stop offset="1" stop-color="#3E5C76"/>
</linearGradient>
<clipPath id="clip0">
<rect width="326" height="324" fill="white" transform="translate(673)"/>
</clipPath>
</defs>
</svg>
